<?xml version="1.0" encoding="utf-8" standalone="no"?>
<!DOCTYPE svg PUBLIC "-//W3C//DTD SVG 1.1//EN"
  "http://www.w3.org/Graphics/SVG/1.1/DTD/svg11.dtd">
<svg xmlns:xlink="http://www.w3.org/1999/xlink" width="720pt" height="432pt" viewBox="0 0 720 432" xmlns="http://www.w3.org/2000/svg" version="1.1">
 <metadata>
  <rdf:RDF xmlns:dc="http://purl.org/dc/elements/1.1/" xmlns:cc="http://creativecommons.org/ns#" xmlns:rdf="http://www.w3.org/1999/02/22-rdf-syntax-ns#">
   <cc:Work>
    <dc:type rdf:resource="http://purl.org/dc/dcmitype/StillImage"/>
    <dc:date>2025-05-13T20:43:07.185547</dc:date>
    <dc:format>image/svg+xml</dc:format>
    <dc:creator>
     <cc:Agent>
      <dc:title>Matplotlib v3.10.1, https://matplotlib.org/</dc:title>
     </cc:Agent>
    </dc:creator>
   </cc:Work>
  </rdf:RDF>
 </metadata>
 <defs>
  <style type="text/css">*{stroke-linejoin: round; stroke-linecap: butt}</style>
 </defs>
 <g id="figure_1">
  <g id="patch_1">
   <path d="M 0 432 
L 720 432 
L 720 0 
L 0 0 
z
" style="fill: #ffffff"/>
  </g>
  <g id="axes_1">
   <g id="patch_2">
    <path d="M 54.02 390.04 
L 709.2 390.04 
L 709.2 26.88 
L 54.02 26.88 
z
" style="fill: #ffffff"/>
   </g>
   <g id="patch_3">
    <path d="M 83.800909 390.04 
L 103.654848 390.04 
L 103.654848 347.579946 
L 83.800909 347.579946 
z
" clip-path="url(#p05fca5718e)" style="fill: #87ceeb; fill-opacity: 0.6; stroke: #000000; stroke-linejoin: miter"/>
   </g>
   <g id="patch_4">
    <path d="M 103.654848 390.04 
L 123.508788 390.04 
L 123.508788 310.181355 
L 103.654848 310.181355 
z
" clip-path="url(#p05fca5718e)" style="fill: #87ceeb; fill-opacity: 0.6; stroke: #000000; stroke-linejoin: miter"/>
   </g>
   <g id="patch_5">
    <path d="M 123.508788 390.04 
L 143.362727 390.04 
L 143.362727 277.281843 
L 123.508788 277.281843 
z
" clip-path="url(#p05fca5718e)" style="fill: #87ceeb; fill-opacity: 0.6; stroke: #000000; stroke-linejoin: miter"/>
   </g>
   <g id="patch_6">
    <path d="M 143.362727 390.04 
L 163.216667 390.04 
L 163.216667 250.006179 
L 143.362727 250.006179 
z
" clip-path="url(#p05fca5718e)" style="fill: #87ceeb; fill-opacity: 0.6; stroke: #000000; stroke-linejoin: miter"/>
   </g>
   <g id="patch_7">
    <path d="M 163.216667 390.04 
L 183.070606 390.04 
L 183.070606 171.834688 
L 163.216667 171.834688 
z
" clip-path="url(#p05fca5718e)" style="fill: #87ceeb; fill-opacity: 0.6; stroke: #000000; stroke-linejoin: miter"/>
   </g>
   <g id="patch_8">
    <path d="M 183.070606 390.04 
L 202.924545 390.04 
L 202.924545 73.136152 
L 183.070606 73.136152 
z
" clip-path="url(#p05fca5718e)" style="fill: #87ceeb; fill-opacity: 0.6; stroke: #000000; stroke-linejoin: miter"/>
   </g>
   <g id="patch_9">
    <path d="M 202.924545 390.04 
L 222.778485 390.04 
L 222.778485 137.810407 
L 202.924545 137.810407 
z
" clip-path="url(#p05fca5718e)" style="fill: #87ceeb; fill-opacity: 0.6; stroke: #000000; stroke-linejoin: miter"/>
   </g>
   <g id="patch_10">
    <path d="M 222.778485 390.04 
L 242.632424 390.04 
L 242.632424 55.983415 
L 222.778485 55.983415 
z
" clip-path="url(#p05fca5718e)" style="fill: #87ceeb; fill-opacity: 0.6; stroke: #000000; stroke-linejoin: miter"/>
   </g>
   <g id="patch_11">
    <path d="M 242.632424 390.04 
L 262.486364 390.04 
L 262.486364 44.173333 
L 242.632424 44.173333 
z
" clip-path="url(#p05fca5718e)" style="fill: #87ceeb; fill-opacity: 0.6; stroke: #000000; stroke-linejoin: miter"/>
   </g>
   <g id="patch_12">
    <path d="M 262.486364 390.04 
L 282.340303 390.04 
L 282.340303 148.214526 
L 262.486364 148.214526 
z
" clip-path="url(#p05fca5718e)" style="fill: #87ceeb; fill-opacity: 0.6; stroke: #000000; stroke-linejoin: miter"/>
   </g>
   <g id="patch_13">
    <path d="M 282.340303 390.04 
L 302.194242 390.04 
L 302.194242 165.648455 
L 282.340303 165.648455 
z
" clip-path="url(#p05fca5718e)" style="fill: #87ceeb; fill-opacity: 0.6; stroke: #000000; stroke-linejoin: miter"/>
   </g>
   <g id="patch_14">
    <path d="M 302.194242 390.04 
L 322.048182 390.04 
L 322.048182 200.235122 
L 302.194242 200.235122 
z
" clip-path="url(#p05fca5718e)" style="fill: #87ceeb; fill-opacity: 0.6; stroke: #000000; stroke-linejoin: miter"/>
   </g>
   <g id="patch_15">
    <path d="M 322.048182 390.04 
L 341.902121 390.04 
L 341.902121 239.320867 
L 322.048182 239.320867 
z
" clip-path="url(#p05fca5718e)" style="fill: #87ceeb; fill-opacity: 0.6; stroke: #000000; stroke-linejoin: miter"/>
   </g>
   <g id="patch_16">
    <path d="M 341.902121 390.04 
L 361.756061 390.04 
L 361.756061 308.775393 
L 341.902121 308.775393 
z
" clip-path="url(#p05fca5718e)" style="fill: #87ceeb; fill-opacity: 0.6; stroke: #000000; stroke-linejoin: miter"/>
   </g>
   <g id="patch_17">
    <path d="M 361.756061 390.04 
L 381.61 390.04 
L 381.61 296.402927 
L 361.756061 296.402927 
z
" clip-path="url(#p05fca5718e)" style="fill: #87ceeb; fill-opacity: 0.6; stroke: #000000; stroke-linejoin: miter"/>
   </g>
   <g id="patch_18">
    <path d="M 381.61 390.04 
L 401.463939 390.04 
L 401.463939 304.276314 
L 381.61 304.276314 
z
" clip-path="url(#p05fca5718e)" style="fill: #87ceeb; fill-opacity: 0.6; stroke: #000000; stroke-linejoin: miter"/>
   </g>
   <g id="patch_19">
    <path d="M 401.463939 390.04 
L 421.317879 390.04 
L 421.317879 347.579946 
L 401.463939 347.579946 
z
" clip-path="url(#p05fca5718e)" style="fill: #87ceeb; fill-opacity: 0.6; stroke: #000000; stroke-linejoin: miter"/>
   </g>
   <g id="patch_20">
    <path d="M 421.317879 390.04 
L 441.171818 390.04 
L 441.171818 345.892791 
L 421.317879 345.892791 
z
" clip-path="url(#p05fca5718e)" style="fill: #87ceeb; fill-opacity: 0.6; stroke: #000000; stroke-linejoin: miter"/>
   </g>
   <g id="patch_21">
    <path d="M 441.171818 390.04 
L 461.025758 390.04 
L 461.025758 343.924444 
L 441.171818 343.924444 
z
" clip-path="url(#p05fca5718e)" style="fill: #87ceeb; fill-opacity: 0.6; stroke: #000000; stroke-linejoin: miter"/>
   </g>
   <g id="patch_22">
    <path d="M 461.025758 390.04 
L 480.879697 390.04 
L 480.879697 365.857453 
L 461.025758 365.857453 
z
" clip-path="url(#p05fca5718e)" style="fill: #87ceeb; fill-opacity: 0.6; stroke: #000000; stroke-linejoin: miter"/>
   </g>
   <g id="patch_23">
    <path d="M 480.879697 390.04 
L 500.733636 390.04 
L 500.733636 363.607913 
L 480.879697 363.607913 
z
" clip-path="url(#p05fca5718e)" style="fill: #87ceeb; fill-opacity: 0.6; stroke: #000000; stroke-linejoin: miter"/>
   </g>
   <g id="patch_24">
    <path d="M 500.733636 390.04 
L 520.587576 390.04 
L 520.587576 360.233604 
L 500.733636 360.233604 
z
" clip-path="url(#p05fca5718e)" style="fill: #87ceeb; fill-opacity: 0.6; stroke: #000000; stroke-linejoin: miter"/>
   </g>
   <g id="patch_25">
    <path d="M 520.587576 390.04 
L 540.441515 390.04 
L 540.441515 373.449648 
L 520.587576 373.449648 
z
" clip-path="url(#p05fca5718e)" style="fill: #87ceeb; fill-opacity: 0.6; stroke: #000000; stroke-linejoin: miter"/>
   </g>
   <g id="patch_26">
    <path d="M 540.441515 390.04 
L 560.295455 390.04 
L 560.295455 379.917073 
L 540.441515 379.917073 
z
" clip-path="url(#p05fca5718e)" style="fill: #87ceeb; fill-opacity: 0.6; stroke: #000000; stroke-linejoin: miter"/>
   </g>
   <g id="patch_27">
    <path d="M 560.295455 390.04 
L 580.149394 390.04 
L 580.149394 375.980379 
L 560.295455 375.980379 
z
" clip-path="url(#p05fca5718e)" style="fill: #87ceeb; fill-opacity: 0.6; stroke: #000000; stroke-linejoin: miter"/>
   </g>
   <g id="patch_28">
    <path d="M 580.149394 390.04 
L 600.003333 390.04 
L 600.003333 378.229919 
L 580.149394 378.229919 
z
" clip-path="url(#p05fca5718e)" style="fill: #87ceeb; fill-opacity: 0.6; stroke: #000000; stroke-linejoin: miter"/>
   </g>
   <g id="patch_29">
    <path d="M 600.003333 390.04 
L 619.857273 390.04 
L 619.857273 379.354688 
L 600.003333 379.354688 
z
" clip-path="url(#p05fca5718e)" style="fill: #87ceeb; fill-opacity: 0.6; stroke: #000000; stroke-linejoin: miter"/>
   </g>
   <g id="patch_30">
    <path d="M 619.857273 390.04 
L 639.711212 390.04 
L 639.711212 381.041843 
L 619.857273 381.041843 
z
" clip-path="url(#p05fca5718e)" style="fill: #87ceeb; fill-opacity: 0.6; stroke: #000000; stroke-linejoin: miter"/>
   </g>
   <g id="patch_31">
    <path d="M 639.711212 390.04 
L 659.565152 390.04 
L 659.565152 381.323035 
L 639.711212 381.323035 
z
" clip-path="url(#p05fca5718e)" style="fill: #87ceeb; fill-opacity: 0.6; stroke: #000000; stroke-linejoin: miter"/>
   </g>
   <g id="patch_32">
    <path d="M 659.565152 390.04 
L 679.419091 390.04 
L 679.419091 383.853767 
L 659.565152 383.853767 
z
" clip-path="url(#p05fca5718e)" style="fill: #87ceeb; fill-opacity: 0.6; stroke: #000000; stroke-linejoin: miter"/>
   </g>
   <g id="patch_33">
    <path d="M 83.800909 390.04 
L 103.654848 390.04 
L 103.654848 361.302094 
L 83.800909 361.302094 
z
" clip-path="url(#p05fca5718e)" style="fill: #fa8072; fill-opacity: 0.6; stroke: #000000; stroke-linejoin: miter"/>
   </g>
   <g id="patch_34">
    <path d="M 103.654848 390.04 
L 123.508788 390.04 
L 123.508788 326.406064 
L 103.654848 326.406064 
z
" clip-path="url(#p05fca5718e)" style="fill: #fa8072; fill-opacity: 0.6; stroke: #000000; stroke-linejoin: miter"/>
   </g>
   <g id="patch_35">
    <path d="M 123.508788 390.04 
L 143.362727 390.04 
L 143.362727 272.693549 
L 123.508788 272.693549 
z
" clip-path="url(#p05fca5718e)" style="fill: #fa8072; fill-opacity: 0.6; stroke: #000000; stroke-linejoin: miter"/>
   </g>
   <g id="patch_36">
    <path d="M 143.362727 390.04 
L 163.216667 390.04 
L 163.216667 280.220143 
L 143.362727 280.220143 
z
" clip-path="url(#p05fca5718e)" style="fill: #fa8072; fill-opacity: 0.6; stroke: #000000; stroke-linejoin: miter"/>
   </g>
   <g id="patch_37">
    <path d="M 163.216667 390.04 
L 183.070606 390.04 
L 183.070606 172.452994 
L 163.216667 172.452994 
z
" clip-path="url(#p05fca5718e)" style="fill: #fa8072; fill-opacity: 0.6; stroke: #000000; stroke-linejoin: miter"/>
   </g>
   <g id="patch_38">
    <path d="M 183.070606 390.04 
L 202.924545 390.04 
L 202.924545 85.555039 
L 183.070606 85.555039 
z
" clip-path="url(#p05fca5718e)" style="fill: #fa8072; fill-opacity: 0.6; stroke: #000000; stroke-linejoin: miter"/>
   </g>
   <g id="patch_39">
    <path d="M 202.924545 390.04 
L 222.778485 390.04 
L 222.778485 139.609672 
L 202.924545 139.609672 
z
" clip-path="url(#p05fca5718e)" style="fill: #fa8072; fill-opacity: 0.6; stroke: #000000; stroke-linejoin: miter"/>
   </g>
   <g id="patch_40">
    <path d="M 222.778485 390.04 
L 242.632424 390.04 
L 242.632424 58.527722 
L 222.778485 58.527722 
z
" clip-path="url(#p05fca5718e)" style="fill: #fa8072; fill-opacity: 0.6; stroke: #000000; stroke-linejoin: miter"/>
   </g>
   <g id="patch_41">
    <path d="M 242.632424 390.04 
L 262.486364 390.04 
L 262.486364 48.94842 
L 242.632424 48.94842 
z
" clip-path="url(#p05fca5718e)" style="fill: #fa8072; fill-opacity: 0.6; stroke: #000000; stroke-linejoin: miter"/>
   </g>
   <g id="patch_42">
    <path d="M 262.486364 390.04 
L 282.340303 390.04 
L 282.340303 149.188974 
L 262.486364 149.188974 
z
" clip-path="url(#p05fca5718e)" style="fill: #fa8072; fill-opacity: 0.6; stroke: #000000; stroke-linejoin: miter"/>
   </g>
   <g id="patch_43">
    <path d="M 282.340303 390.04 
L 302.194242 390.04 
L 302.194242 133.793667 
L 282.340303 133.793667 
z
" clip-path="url(#p05fca5718e)" style="fill: #fa8072; fill-opacity: 0.6; stroke: #000000; stroke-linejoin: miter"/>
   </g>
   <g id="patch_44">
    <path d="M 302.194242 390.04 
L 322.048182 390.04 
L 322.048182 173.479348 
L 302.194242 173.479348 
z
" clip-path="url(#p05fca5718e)" style="fill: #fa8072; fill-opacity: 0.6; stroke: #000000; stroke-linejoin: miter"/>
   </g>
   <g id="patch_45">
    <path d="M 322.048182 390.04 
L 341.902121 390.04 
L 341.902121 218.296797 
L 322.048182 218.296797 
z
" clip-path="url(#p05fca5718e)" style="fill: #fa8072; fill-opacity: 0.6; stroke: #000000; stroke-linejoin: miter"/>
   </g>
   <g id="patch_46">
    <path d="M 341.902121 390.04 
L 361.756061 390.04 
L 361.756061 291.852153 
L 341.902121 291.852153 
z
" clip-path="url(#p05fca5718e)" style="fill: #fa8072; fill-opacity: 0.6; stroke: #000000; stroke-linejoin: miter"/>
   </g>
   <g id="patch_47">
    <path d="M 361.756061 390.04 
L 381.61 390.04 
L 381.61 297.32604 
L 361.756061 297.32604 
z
" clip-path="url(#p05fca5718e)" style="fill: #fa8072; fill-opacity: 0.6; stroke: #000000; stroke-linejoin: miter"/>
   </g>
   <g id="patch_48">
    <path d="M 381.61 390.04 
L 401.463939 390.04 
L 401.463939 291.852153 
L 381.61 291.852153 
z
" clip-path="url(#p05fca5718e)" style="fill: #fa8072; fill-opacity: 0.6; stroke: #000000; stroke-linejoin: miter"/>
   </g>
   <g id="patch_49">
    <path d="M 401.463939 390.04 
L 421.317879 390.04 
L 421.317879 346.591022 
L 401.463939 346.591022 
z
" clip-path="url(#p05fca5718e)" style="fill: #fa8072; fill-opacity: 0.6; stroke: #000000; stroke-linejoin: miter"/>
   </g>
   <g id="patch_50">
    <path d="M 421.317879 390.04 
L 441.171818 390.04 
L 441.171818 352.407027 
L 421.317879 352.407027 
z
" clip-path="url(#p05fca5718e)" style="fill: #fa8072; fill-opacity: 0.6; stroke: #000000; stroke-linejoin: miter"/>
   </g>
   <g id="patch_51">
    <path d="M 441.171818 390.04 
L 461.025758 390.04 
L 461.025758 346.248904 
L 441.171818 346.248904 
z
" clip-path="url(#p05fca5718e)" style="fill: #fa8072; fill-opacity: 0.6; stroke: #000000; stroke-linejoin: miter"/>
   </g>
   <g id="patch_52">
    <path d="M 461.025758 390.04 
L 480.879697 390.04 
L 480.879697 368.144452 
L 461.025758 368.144452 
z
" clip-path="url(#p05fca5718e)" style="fill: #fa8072; fill-opacity: 0.6; stroke: #000000; stroke-linejoin: miter"/>
   </g>
   <g id="patch_53">
    <path d="M 480.879697 390.04 
L 500.733636 390.04 
L 500.733636 366.433863 
L 480.879697 366.433863 
z
" clip-path="url(#p05fca5718e)" style="fill: #fa8072; fill-opacity: 0.6; stroke: #000000; stroke-linejoin: miter"/>
   </g>
   <g id="patch_54">
    <path d="M 500.733636 390.04 
L 520.587576 390.04 
L 520.587576 368.48657 
L 500.733636 368.48657 
z
" clip-path="url(#p05fca5718e)" style="fill: #fa8072; fill-opacity: 0.6; stroke: #000000; stroke-linejoin: miter"/>
   </g>
   <g id="patch_55">
    <path d="M 520.587576 390.04 
L 540.441515 390.04 
L 540.441515 373.960457 
L 520.587576 373.960457 
z
" clip-path="url(#p05fca5718e)" style="fill: #fa8072; fill-opacity: 0.6; stroke: #000000; stroke-linejoin: miter"/>
   </g>
   <g id="patch_56">
    <path d="M 540.441515 390.04 
L 560.295455 390.04 
L 560.295455 380.460698 
L 540.441515 380.460698 
z
" clip-path="url(#p05fca5718e)" style="fill: #fa8072; fill-opacity: 0.6; stroke: #000000; stroke-linejoin: miter"/>
   </g>
   <g id="patch_57">
    <path d="M 560.295455 390.04 
L 580.149394 390.04 
L 580.149394 374.644693 
L 560.295455 374.644693 
z
" clip-path="url(#p05fca5718e)" style="fill: #fa8072; fill-opacity: 0.6; stroke: #000000; stroke-linejoin: miter"/>
   </g>
   <g id="patch_58">
    <path d="M 580.149394 390.04 
L 600.003333 390.04 
L 600.003333 381.82917 
L 580.149394 381.82917 
z
" clip-path="url(#p05fca5718e)" style="fill: #fa8072; fill-opacity: 0.6; stroke: #000000; stroke-linejoin: miter"/>
   </g>
   <g id="patch_59">
    <path d="M 600.003333 390.04 
L 619.857273 390.04 
L 619.857273 385.592467 
L 600.003333 385.592467 
z
" clip-path="url(#p05fca5718e)" style="fill: #fa8072; fill-opacity: 0.6; stroke: #000000; stroke-linejoin: miter"/>
   </g>
   <g id="patch_60">
    <path d="M 619.857273 390.04 
L 639.711212 390.04 
L 639.711212 380.11858 
L 619.857273 380.11858 
z
" clip-path="url(#p05fca5718e)" style="fill: #fa8072; fill-opacity: 0.6; stroke: #000000; stroke-linejoin: miter"/>
   </g>
   <g id="patch_61">
    <path d="M 639.711212 390.04 
L 659.565152 390.04 
L 659.565152 382.513405 
L 639.711212 382.513405 
z
" clip-path="url(#p05fca5718e)" style="fill: #fa8072; fill-opacity: 0.6; stroke: #000000; stroke-linejoin: miter"/>
   </g>
   <g id="patch_62">
    <path d="M 659.565152 390.04 
L 679.419091 390.04 
L 679.419091 382.171288 
L 659.565152 382.171288 
z
" clip-path="url(#p05fca5718e)" style="fill: #fa8072; fill-opacity: 0.6; stroke: #000000; stroke-linejoin: miter"/>
   </g>
   <g id="matplotlib.axis_1">
    <g id="xtick_1">
     <g id="line2d_1">
      <path d="M 73.06905 390.04 
L 73.06905 26.88 
" clip-path="url(#p05fca5718e)" style="fill: none; stroke: #b0b0b0; stroke-opacity: 0.3; stroke-width: 0.8; stroke-linecap: square"/>
     </g>
     <g id="line2d_2">
      <defs>
       <path id="mc0ef257bd2" d="M 0 0 
L 0 3.5 
" style="stroke: #000000; stroke-width: 0.8"/>
      </defs>
      <g>
       <use xlink:href="#mc0ef257bd2" x="73.06905" y="390.04" style="stroke: #000000; stroke-width: 0.8"/>
      </g>
     </g>
     <g id="text_1">
      <text style="font-size: 10px; font-family: 'DejaVu Sans', 'Bitstream Vera Sans', 'Computer Modern Sans Serif', 'Lucida Grande', 'Verdana', 'Geneva', 'Lucid', 'Arial', 'Helvetica', 'Avant Garde', sans-serif; text-anchor: middle" x="73.06905" y="404.638438" transform="rotate(-0 73.06905 404.638438)">14</text>
     </g>
    </g>
    <g id="xtick_2">
     <g id="line2d_3">
      <path d="M 180.387641 390.04 
L 180.387641 26.88 
" clip-path="url(#p05fca5718e)" style="fill: none; stroke: #b0b0b0; stroke-opacity: 0.3; stroke-width: 0.8; stroke-linecap: square"/>
     </g>
     <g id="line2d_4">
      <g>
       <use xlink:href="#mc0ef257bd2" x="180.387641" y="390.04" style="stroke: #000000; stroke-width: 0.8"/>
      </g>
     </g>
     <g id="text_2">
      <text style="font-size: 10px; font-family: 'DejaVu Sans', 'Bitstream Vera Sans', 'Computer Modern Sans Serif', 'Lucida Grande', 'Verdana', 'Geneva', 'Lucid', 'Arial', 'Helvetica', 'Avant Garde', sans-serif; text-anchor: middle" x="180.387641" y="404.638438" transform="rotate(-0 180.387641 404.638438)">16</text>
     </g>
    </g>
    <g id="xtick_3">
     <g id="line2d_5">
      <path d="M 287.706233 390.04 
L 287.706233 26.88 
" clip-path="url(#p05fca5718e)" style="fill: none; stroke: #b0b0b0; stroke-opacity: 0.3; stroke-width: 0.8; stroke-linecap: square"/>
     </g>
     <g id="line2d_6">
      <g>
       <use xlink:href="#mc0ef257bd2" x="287.706233" y="390.04" style="stroke: #000000; stroke-width: 0.8"/>
      </g>
     </g>
     <g id="text_3">
      <text style="font-size: 10px; font-family: 'DejaVu Sans', 'Bitstream Vera Sans', 'Computer Modern Sans Serif', 'Lucida Grande', 'Verdana', 'Geneva', 'Lucid', 'Arial', 'Helvetica', 'Avant Garde', sans-serif; text-anchor: middle" x="287.706233" y="404.638438" transform="rotate(-0 287.706233 404.638438)">18</text>
     </g>
    </g>
    <g id="xtick_4">
     <g id="line2d_7">
      <path d="M 395.024824 390.04 
L 395.024824 26.88 
" clip-path="url(#p05fca5718e)" style="fill: none; stroke: #b0b0b0; stroke-opacity: 0.3; stroke-width: 0.8; stroke-linecap: square"/>
     </g>
     <g id="line2d_8">
      <g>
       <use xlink:href="#mc0ef257bd2" x="395.024824" y="390.04" style="stroke: #000000; stroke-width: 0.8"/>
      </g>
     </g>
     <g id="text_4">
      <text style="font-size: 10px; font-family: 'DejaVu Sans', 'Bitstream Vera Sans', 'Computer Modern Sans Serif', 'Lucida Grande', 'Verdana', 'Geneva', 'Lucid', 'Arial', 'Helvetica', 'Avant Garde', sans-serif; text-anchor: middle" x="395.024824" y="404.638438" transform="rotate(-0 395.024824 404.638438)">20</text>
     </g>
    </g>
    <g id="xtick_5">
     <g id="line2d_9">
      <path d="M 502.343415 390.04 
L 502.343415 26.88 
" clip-path="url(#p05fca5718e)" style="fill: none; stroke: #b0b0b0; stroke-opacity: 0.3; stroke-width: 0.8; stroke-linecap: square"/>
     </g>
     <g id="line2d_10">
      <g>
       <use xlink:href="#mc0ef257bd2" x="502.343415" y="390.04" style="stroke: #000000; stroke-width: 0.8"/>
      </g>
     </g>
     <g id="text_5">
      <text style="font-size: 10px; font-family: 'DejaVu Sans', 'Bitstream Vera Sans', 'Computer Modern Sans Serif', 'Lucida Grande', 'Verdana', 'Geneva', 'Lucid', 'Arial', 'Helvetica', 'Avant Garde', sans-serif; text-anchor: middle" x="502.343415" y="404.638438" transform="rotate(-0 502.343415 404.638438)">22</text>
     </g>
    </g>
    <g id="xtick_6">
     <g id="line2d_11">
      <path d="M 609.662007 390.04 
L 609.662007 26.88 
" clip-path="url(#p05fca5718e)" style="fill: none; stroke: #b0b0b0; stroke-opacity: 0.3; stroke-width: 0.8; stroke-linecap: square"/>
     </g>
     <g id="line2d_12">
      <g>
       <use xlink:href="#mc0ef257bd2" x="609.662007" y="390.04" style="stroke: #000000; stroke-width: 0.8"/>
      </g>
     </g>
     <g id="text_6">
      <text style="font-size: 10px; font-family: 'DejaVu Sans', 'Bitstream Vera Sans', 'Computer Modern Sans Serif', 'Lucida Grande', 'Verdana', 'Geneva', 'Lucid', 'Arial', 'Helvetica', 'Avant Garde', sans-serif; text-anchor: middle" x="609.662007" y="404.638438" transform="rotate(-0 609.662007 404.638438)">24</text>
     </g>
    </g>
    <g id="text_7">
     <text style="font-size: 10px; font-family: 'DejaVu Sans', 'Bitstream Vera Sans', 'Computer Modern Sans Serif', 'Lucida Grande', 'Verdana', 'Geneva', 'Lucid', 'Arial', 'Helvetica', 'Avant Garde', sans-serif; text-anchor: middle" x="381.61" y="418.316562" transform="rotate(-0 381.61 418.316562)">FKGL Score</text>
    </g>
   </g>
   <g id="matplotlib.axis_2">
    <g id="ytick_1">
     <g id="line2d_13">
      <path d="M 54.02 390.04 
L 709.2 390.04 
" clip-path="url(#p05fca5718e)" style="fill: none; stroke: #b0b0b0; stroke-opacity: 0.3; stroke-width: 0.8; stroke-linecap: square"/>
     </g>
     <g id="line2d_14">
      <defs>
       <path id="m173e5d711f" d="M 0 0 
L -3.5 0 
" style="stroke: #000000; stroke-width: 0.8"/>
      </defs>
      <g>
       <use xlink:href="#m173e5d711f" x="54.02" y="390.04" style="stroke: #000000; stroke-width: 0.8"/>
      </g>
     </g>
     <g id="text_8">
      <text style="font-size: 10px; font-family: 'DejaVu Sans', 'Bitstream Vera Sans', 'Computer Modern Sans Serif', 'Lucida Grande', 'Verdana', 'Geneva', 'Lucid', 'Arial', 'Helvetica', 'Avant Garde', sans-serif; text-anchor: end" x="47.02" y="393.839219" transform="rotate(-0 47.02 393.839219)">0.00</text>
     </g>
    </g>
    <g id="ytick_2">
     <g id="line2d_15">
      <path d="M 54.02 330.653287 
L 709.2 330.653287 
" clip-path="url(#p05fca5718e)" style="fill: none; stroke: #b0b0b0; stroke-opacity: 0.3; stroke-width: 0.8; stroke-linecap: square"/>
     </g>
     <g id="line2d_16">
      <g>
       <use xlink:href="#m173e5d711f" x="54.02" y="330.653287" style="stroke: #000000; stroke-width: 0.8"/>
      </g>
     </g>
     <g id="text_9">
      <text style="font-size: 10px; font-family: 'DejaVu Sans', 'Bitstream Vera Sans', 'Computer Modern Sans Serif', 'Lucida Grande', 'Verdana', 'Geneva', 'Lucid', 'Arial', 'Helvetica', 'Avant Garde', sans-serif; text-anchor: end" x="47.02" y="334.452506" transform="rotate(-0 47.02 334.452506)">0.05</text>
     </g>
    </g>
    <g id="ytick_3">
     <g id="line2d_17">
      <path d="M 54.02 271.266575 
L 709.2 271.266575 
" clip-path="url(#p05fca5718e)" style="fill: none; stroke: #b0b0b0; stroke-opacity: 0.3; stroke-width: 0.8; stroke-linecap: square"/>
     </g>
     <g id="line2d_18">
      <g>
       <use xlink:href="#m173e5d711f" x="54.02" y="271.266575" style="stroke: #000000; stroke-width: 0.8"/>
      </g>
     </g>
     <g id="text_10">
      <text style="font-size: 10px; font-family: 'DejaVu Sans', 'Bitstream Vera Sans', 'Computer Modern Sans Serif', 'Lucida Grande', 'Verdana', 'Geneva', 'Lucid', 'Arial', 'Helvetica', 'Avant Garde', sans-serif; text-anchor: end" x="47.02" y="275.065793" transform="rotate(-0 47.02 275.065793)">0.10</text>
     </g>
    </g>
    <g id="ytick_4">
     <g id="line2d_19">
      <path d="M 54.02 211.879862 
L 709.2 211.879862 
" clip-path="url(#p05fca5718e)" style="fill: none; stroke: #b0b0b0; stroke-opacity: 0.3; stroke-width: 0.8; stroke-linecap: square"/>
     </g>
     <g id="line2d_20">
      <g>
       <use xlink:href="#m173e5d711f" x="54.02" y="211.879862" style="stroke: #000000; stroke-width: 0.8"/>
      </g>
     </g>
     <g id="text_11">
      <text style="font-size: 10px; font-family: 'DejaVu Sans', 'Bitstream Vera Sans', 'Computer Modern Sans Serif', 'Lucida Grande', 'Verdana', 'Geneva', 'Lucid', 'Arial', 'Helvetica', 'Avant Garde', sans-serif; text-anchor: end" x="47.02" y="215.679081" transform="rotate(-0 47.02 215.679081)">0.15</text>
     </g>
    </g>
    <g id="ytick_5">
     <g id="line2d_21">
      <path d="M 54.02 152.493149 
L 709.2 152.493149 
" clip-path="url(#p05fca5718e)" style="fill: none; stroke: #b0b0b0; stroke-opacity: 0.3; stroke-width: 0.8; stroke-linecap: square"/>
     </g>
     <g id="line2d_22">
      <g>
       <use xlink:href="#m173e5d711f" x="54.02" y="152.493149" style="stroke: #000000; stroke-width: 0.8"/>
      </g>
     </g>
     <g id="text_12">
      <text style="font-size: 10px; font-family: 'DejaVu Sans', 'Bitstream Vera Sans', 'Computer Modern Sans Serif', 'Lucida Grande', 'Verdana', 'Geneva', 'Lucid', 'Arial', 'Helvetica', 'Avant Garde', sans-serif; text-anchor: end" x="47.02" y="156.292368" transform="rotate(-0 47.02 156.292368)">0.20</text>
     </g>
    </g>
    <g id="ytick_6">
     <g id="line2d_23">
      <path d="M 54.02 93.106437 
L 709.2 93.106437 
" clip-path="url(#p05fca5718e)" style="fill: none; stroke: #b0b0b0; stroke-opacity: 0.3; stroke-width: 0.8; stroke-linecap: square"/>
     </g>
     <g id="line2d_24">
      <g>
       <use xlink:href="#m173e5d711f" x="54.02" y="93.106437" style="stroke: #000000; stroke-width: 0.8"/>
      </g>
     </g>
     <g id="text_13">
      <text style="font-size: 10px; font-family: 'DejaVu Sans', 'Bitstream Vera Sans', 'Computer Modern Sans Serif', 'Lucida Grande', 'Verdana', 'Geneva', 'Lucid', 'Arial', 'Helvetica', 'Avant Garde', sans-serif; text-anchor: end" x="47.02" y="96.905656" transform="rotate(-0 47.02 96.905656)">0.25</text>
     </g>
    </g>
    <g id="ytick_7">
     <g id="line2d_25">
      <path d="M 54.02 33.719724 
L 709.2 33.719724 
" clip-path="url(#p05fca5718e)" style="fill: none; stroke: #b0b0b0; stroke-opacity: 0.3; stroke-width: 0.8; stroke-linecap: square"/>
     </g>
     <g id="line2d_26">
      <g>
       <use xlink:href="#m173e5d711f" x="54.02" y="33.719724" style="stroke: #000000; stroke-width: 0.8"/>
      </g>
     </g>
     <g id="text_14">
      <text style="font-size: 10px; font-family: 'DejaVu Sans', 'Bitstream Vera Sans', 'Computer Modern Sans Serif', 'Lucida Grande', 'Verdana', 'Geneva', 'Lucid', 'Arial', 'Helvetica', 'Avant Garde', sans-serif; text-anchor: end" x="47.02" y="37.518943" transform="rotate(-0 47.02 37.518943)">0.30</text>
     </g>
    </g>
    <g id="text_15">
     <text style="font-size: 10px; font-family: 'DejaVu Sans', 'Bitstream Vera Sans', 'Computer Modern Sans Serif', 'Lucida Grande', 'Verdana', 'Geneva', 'Lucid', 'Arial', 'Helvetica', 'Avant Garde', sans-serif; text-anchor: middle" x="18.674688" y="208.46" transform="rotate(-90 18.674688 208.46)">Density</text>
    </g>
   </g>
   <g id="line2d_27">
    <path d="M 83.800909 340.039135 
L 89.787021 334.524922 
L 95.773134 328.618115 
L 101.759246 322.320448 
L 107.745359 315.638145 
L 113.731471 308.58229 
L 119.717583 301.169141 
L 125.703696 293.420385 
L 131.689808 285.36331 
L 140.668977 272.773315 
L 149.648145 259.700366 
L 161.62037 241.803695 
L 179.578707 214.909287 
L 188.557876 201.921304 
L 194.543988 193.593865 
L 200.530101 185.615113 
L 206.516213 178.056142 
L 212.502325 170.986314 
L 218.488438 164.472209 
L 221.481494 161.443341 
L 224.47455 158.576585 
L 227.467606 155.879023 
L 230.460662 153.357377 
L 233.453719 151.01798 
L 236.446775 148.866748 
L 239.439831 146.909159 
L 242.432887 145.150225 
L 245.425943 143.594473 
L 248.419 142.245927 
L 251.412056 141.108088 
L 254.405112 140.183919 
L 257.398168 139.475835 
L 260.391224 138.98569 
L 263.38428 138.714769 
L 266.377337 138.663783 
L 269.370393 138.832866 
L 272.363449 139.221573 
L 275.356505 139.828886 
L 278.349561 140.653213 
L 281.342618 141.692398 
L 284.335674 142.94373 
L 287.32873 144.403956 
L 290.321786 146.069292 
L 293.314842 147.935442 
L 296.307899 149.997616 
L 299.300955 152.250549 
L 302.294011 154.688525 
L 305.287067 157.305401 
L 308.280123 160.094632 
L 311.27318 163.049299 
L 317.259292 169.425563 
L 323.245404 176.372465 
L 329.231517 183.824218 
L 335.217629 191.712012 
L 341.203741 199.965061 
L 350.18291 212.872607 
L 362.155135 230.695165 
L 383.106528 262.067756 
L 392.085697 275.065488 
L 401.064865 287.554 
L 407.050978 295.531335 
L 413.03709 303.192473 
L 419.023202 310.511638 
L 425.009315 317.468623 
L 430.995427 324.048586 
L 436.98154 330.24178 
L 442.967652 336.043224 
L 448.953764 341.452322 
L 454.939877 346.472443 
L 460.925989 351.110482 
L 466.912101 355.376406 
L 472.898214 359.282793 
L 478.884326 362.844381 
L 484.870439 366.077631 
L 490.856551 369.000311 
L 496.842663 371.631109 
L 502.828776 373.989275 
L 508.814888 376.094295 
L 514.801 377.965615 
L 520.787113 379.622385 
L 526.773225 381.083252 
L 532.759338 382.366188 
L 541.738506 383.994253 
L 550.717675 385.314302 
L 559.696843 386.375125 
L 568.676012 387.220127 
L 580.648237 388.076041 
L 592.620461 388.691192 
L 607.585742 389.213172 
L 625.544079 389.593498 
L 649.488529 389.853045 
L 679.419091 389.981803 
L 679.419091 389.981803 
" clip-path="url(#p05fca5718e)" style="fill: none; stroke: #0000ff; stroke-width: 2; stroke-linecap: square"/>
   </g>
   <g id="line2d_28">
    <path d="M 265.574123 390.04 
L 265.574123 26.88 
" clip-path="url(#p05fca5718e)" style="fill: none; stroke-dasharray: 5.55,2.4; stroke-dashoffset: 0; stroke: #0000ff; stroke-width: 1.5"/>
   </g>
   <g id="line2d_29">
    <path d="M 83.800909 346.859386 
L 89.787021 341.588738 
L 95.773134 335.881034 
L 101.759246 329.730652 
L 107.745359 323.136645 
L 113.731471 316.103283 
L 119.717583 308.64056 
L 125.703696 300.764628 
L 131.689808 292.498166 
L 137.675921 283.87065 
L 143.662033 274.91851 
L 152.641201 260.978524 
L 161.62037 246.582884 
L 188.557876 202.881333 
L 194.543988 193.553078 
L 200.530101 184.542591 
L 206.516213 175.93439 
L 212.502325 167.81202 
L 218.488438 160.256718 
L 224.47455 153.346074 
L 227.467606 150.155422 
L 230.460662 147.152708 
L 233.453719 144.346025 
L 236.446775 141.743001 
L 239.439831 139.350767 
L 242.432887 137.175919 
L 245.425943 135.224494 
L 248.419 133.501937 
L 251.412056 132.01308 
L 254.405112 130.762115 
L 257.398168 129.752579 
L 260.391224 128.987333 
L 263.38428 128.468551 
L 266.377337 128.19771 
L 269.370393 128.175581 
L 272.363449 128.402228 
L 275.356505 128.877004 
L 278.349561 129.598558 
L 281.342618 130.56484 
L 284.335674 131.773109 
L 287.32873 133.219948 
L 290.321786 134.901279 
L 293.314842 136.812383 
L 296.307899 138.947923 
L 299.300955 141.301964 
L 302.294011 143.868007 
L 305.287067 146.639015 
L 308.280123 149.607446 
L 311.27318 152.765287 
L 314.266236 156.10409 
L 320.252348 163.288843 
L 326.23846 171.086886 
L 332.224573 179.418967 
L 338.210685 188.202739 
L 344.196798 197.354095 
L 353.175966 211.585617 
L 368.141247 235.96424 
L 380.113472 255.370118 
L 389.09264 269.511788 
L 395.078753 278.635231 
L 401.064865 287.458783 
L 407.050978 295.941889 
L 413.03709 304.050987 
L 419.023202 311.759424 
L 425.009315 319.04724 
L 430.995427 325.900864 
L 436.98154 332.312713 
L 442.967652 338.280725 
L 448.953764 343.807837 
L 454.939877 348.901425 
L 460.925989 353.572729 
L 466.912101 357.836262 
L 472.898214 361.709235 
L 478.884326 365.210995 
L 484.870439 368.362494 
L 490.856551 371.185791 
L 496.842663 373.703602 
L 502.828776 375.93889 
L 508.814888 377.91451 
L 514.801 379.652901 
L 520.787113 381.175826 
L 526.773225 382.504167 
L 532.759338 383.657759 
L 541.738506 385.100983 
L 550.717675 386.250402 
L 559.696843 387.157091 
L 568.676012 387.865527 
L 580.648237 388.566762 
L 592.620461 389.056923 
L 607.585742 389.459644 
L 628.537136 389.77337 
L 658.467698 389.95904 
L 679.419091 390.006782 
L 679.419091 390.006782 
" clip-path="url(#p05fca5718e)" style="fill: none; stroke: #ff0000; stroke-width: 2; stroke-linecap: square"/>
   </g>
   <g id="line2d_30">
    <path d="M 268.140005 390.04 
L 268.140005 26.88 
" clip-path="url(#p05fca5718e)" style="fill: none; stroke-dasharray: 5.55,2.4; stroke-dashoffset: 0; stroke: #ff0000; stroke-width: 1.5"/>
   </g>
   <g id="patch_63">
    <path d="M 54.02 390.04 
L 54.02 26.88 
" style="fill: none; stroke: #000000; stroke-width: 0.8; stroke-linejoin: miter; stroke-linecap: square"/>
   </g>
   <g id="patch_64">
    <path d="M 709.2 390.04 
L 709.2 26.88 
" style="fill: none; stroke: #000000; stroke-width: 0.8; stroke-linejoin: miter; stroke-linecap: square"/>
   </g>
   <g id="patch_65">
    <path d="M 54.02 390.04 
L 709.2 390.04 
" style="fill: none; stroke: #000000; stroke-width: 0.8; stroke-linejoin: miter; stroke-linecap: square"/>
   </g>
   <g id="patch_66">
    <path d="M 54.02 26.88 
L 709.2 26.88 
" style="fill: none; stroke: #000000; stroke-width: 0.8; stroke-linejoin: miter; stroke-linecap: square"/>
   </g>
   <g id="text_16">
    <text style="font-size: 12px; font-family: 'DejaVu Sans', 'Bitstream Vera Sans', 'Computer Modern Sans Serif', 'Lucida Grande', 'Verdana', 'Geneva', 'Lucid', 'Arial', 'Helvetica', 'Avant Garde', sans-serif; text-anchor: middle" x="381.61" y="20.88" transform="rotate(-0 381.61 20.88)">Figure 1: Distribution of FKGL Scores Before and After Nov 22, 2022(95% CI Filtered, Gaussian Fit)</text>
   </g>
   <g id="legend_1">
    <g id="patch_67">
     <path d="M 567.101562 93.5925 
L 702.2 93.5925 
Q 704.2 93.5925 704.2 91.5925 
L 704.2 33.88 
Q 704.2 31.88 702.2 31.88 
L 567.101562 31.88 
Q 565.101562 31.88 565.101562 33.88 
L 565.101562 91.5925 
Q 565.101562 93.5925 567.101562 93.5925 
z
" style="fill: #ffffff; opacity: 0.8; stroke: #cccccc; stroke-linejoin: miter"/>
    </g>
    <g id="line2d_31">
     <path d="M 569.101562 39.978437 
L 579.101562 39.978437 
L 589.101562 39.978437 
" style="fill: none; stroke-dasharray: 5.55,2.4; stroke-dashoffset: 0; stroke: #0000ff; stroke-width: 1.5"/>
    </g>
    <g id="text_17">
     <text style="font-size: 10px; font-family: 'DejaVu Sans', 'Bitstream Vera Sans', 'Computer Modern Sans Serif', 'Lucida Grande', 'Verdana', 'Geneva', 'Lucid', 'Arial', 'Helvetica', 'Avant Garde', sans-serif; text-anchor: start" x="597.101562" y="43.478437" transform="rotate(-0 597.101562 43.478437)">Mean Before</text>
    </g>
    <g id="line2d_32">
     <path d="M 569.101562 54.656563 
L 579.101562 54.656563 
L 589.101562 54.656563 
" style="fill: none; stroke-dasharray: 5.55,2.4; stroke-dashoffset: 0; stroke: #ff0000; stroke-width: 1.5"/>
    </g>
    <g id="text_18">
     <text style="font-size: 10px; font-family: 'DejaVu Sans', 'Bitstream Vera Sans', 'Computer Modern Sans Serif', 'Lucida Grande', 'Verdana', 'Geneva', 'Lucid', 'Arial', 'Helvetica', 'Avant Garde', sans-serif; text-anchor: start" x="597.101562" y="58.156563" transform="rotate(-0 597.101562 58.156563)">Mean After</text>
    </g>
    <g id="patch_68">
     <path d="M 569.101562 72.834687 
L 589.101562 72.834687 
L 589.101562 65.834687 
L 569.101562 65.834687 
z
" style="fill: #87ceeb; fill-opacity: 0.6; stroke: #000000; stroke-linejoin: miter"/>
    </g>
    <g id="text_19">
     <text style="font-size: 10px; font-family: 'DejaVu Sans', 'Bitstream Vera Sans', 'Computer Modern Sans Serif', 'Lucida Grande', 'Verdana', 'Geneva', 'Lucid', 'Arial', 'Helvetica', 'Avant Garde', sans-serif; text-anchor: start" x="597.101562" y="72.834687" transform="rotate(-0 597.101562 72.834687)">Before Nov 22, 2022</text>
    </g>
    <g id="patch_69">
     <path d="M 569.101562 87.512812 
L 589.101562 87.512812 
L 589.101562 80.512812 
L 569.101562 80.512812 
z
" style="fill: #fa8072; fill-opacity: 0.6; stroke: #000000; stroke-linejoin: miter"/>
    </g>
    <g id="text_20">
     <text style="font-size: 10px; font-family: 'DejaVu Sans', 'Bitstream Vera Sans', 'Computer Modern Sans Serif', 'Lucida Grande', 'Verdana', 'Geneva', 'Lucid', 'Arial', 'Helvetica', 'Avant Garde', sans-serif; text-anchor: start" x="597.101562" y="87.512812" transform="rotate(-0 597.101562 87.512812)">After Nov 22, 2022</text>
    </g>
   </g>
  </g>
 </g>
 <defs>
  <clipPath id="p05fca5718e">
   <rect x="54.02" y="26.88" width="655.18" height="363.16"/>
  </clipPath>
 </defs>
</svg>
