<?xml version="1.0" encoding="utf-8" standalone="no"?>
<!DOCTYPE svg PUBLIC "-//W3C//DTD SVG 1.1//EN"
  "http://www.w3.org/Graphics/SVG/1.1/DTD/svg11.dtd">
<svg xmlns:xlink="http://www.w3.org/1999/xlink" width="720pt" height="432pt" viewBox="0 0 720 432" xmlns="http://www.w3.org/2000/svg" version="1.1">
 <metadata>
  <rdf:RDF xmlns:dc="http://purl.org/dc/elements/1.1/" xmlns:cc="http://creativecommons.org/ns#" xmlns:rdf="http://www.w3.org/1999/02/22-rdf-syntax-ns#">
   <cc:Work>
    <dc:type rdf:resource="http://purl.org/dc/dcmitype/StillImage"/>
    <dc:date>2025-05-13T20:36:17.998765</dc:date>
    <dc:format>image/svg+xml</dc:format>
    <dc:creator>
     <cc:Agent>
      <dc:title>Matplotlib v3.10.1, https://matplotlib.org/</dc:title>
     </cc:Agent>
    </dc:creator>
   </cc:Work>
  </rdf:RDF>
 </metadata>
 <defs>
  <style type="text/css">*{stroke-linejoin: round; stroke-linecap: butt}</style>
 </defs>
 <g id="figure_1">
  <g id="patch_1">
   <path d="M 0 432 
L 720 432 
L 720 0 
L 0 0 
z
" style="fill: #ffffff"/>
  </g>
  <g id="axes_1">
   <g id="patch_2">
    <path d="M 54.02 390.04 
L 709.2 390.04 
L 709.2 26.88 
L 54.02 26.88 
z
" style="fill: #ffffff"/>
   </g>
   <g id="patch_3">
    <path d="M 83.800909 390.04 
L 103.654848 390.04 
L 103.654848 347.579946 
L 83.800909 347.579946 
z
" clip-path="url(#pd808ce142f)" style="fill: #87ceeb; fill-opacity: 0.6; stroke: #000000; stroke-linejoin: miter"/>
   </g>
   <g id="patch_4">
    <path d="M 103.654848 390.04 
L 123.508788 390.04 
L 123.508788 310.181355 
L 103.654848 310.181355 
z
" clip-path="url(#pd808ce142f)" style="fill: #87ceeb; fill-opacity: 0.6; stroke: #000000; stroke-linejoin: miter"/>
   </g>
   <g id="patch_5">
    <path d="M 123.508788 390.04 
L 143.362727 390.04 
L 143.362727 277.281843 
L 123.508788 277.281843 
z
" clip-path="url(#pd808ce142f)" style="fill: #87ceeb; fill-opacity: 0.6; stroke: #000000; stroke-linejoin: miter"/>
   </g>
   <g id="patch_6">
    <path d="M 143.362727 390.04 
L 163.216667 390.04 
L 163.216667 250.006179 
L 143.362727 250.006179 
z
" clip-path="url(#pd808ce142f)" style="fill: #87ceeb; fill-opacity: 0.6; stroke: #000000; stroke-linejoin: miter"/>
   </g>
   <g id="patch_7">
    <path d="M 163.216667 390.04 
L 183.070606 390.04 
L 183.070606 171.834688 
L 163.216667 171.834688 
z
" clip-path="url(#pd808ce142f)" style="fill: #87ceeb; fill-opacity: 0.6; stroke: #000000; stroke-linejoin: miter"/>
   </g>
   <g id="patch_8">
    <path d="M 183.070606 390.04 
L 202.924545 390.04 
L 202.924545 73.136152 
L 183.070606 73.136152 
z
" clip-path="url(#pd808ce142f)" style="fill: #87ceeb; fill-opacity: 0.6; stroke: #000000; stroke-linejoin: miter"/>
   </g>
   <g id="patch_9">
    <path d="M 202.924545 390.04 
L 222.778485 390.04 
L 222.778485 137.810407 
L 202.924545 137.810407 
z
" clip-path="url(#pd808ce142f)" style="fill: #87ceeb; fill-opacity: 0.6; stroke: #000000; stroke-linejoin: miter"/>
   </g>
   <g id="patch_10">
    <path d="M 222.778485 390.04 
L 242.632424 390.04 
L 242.632424 55.983415 
L 222.778485 55.983415 
z
" clip-path="url(#pd808ce142f)" style="fill: #87ceeb; fill-opacity: 0.6; stroke: #000000; stroke-linejoin: miter"/>
   </g>
   <g id="patch_11">
    <path d="M 242.632424 390.04 
L 262.486364 390.04 
L 262.486364 44.173333 
L 242.632424 44.173333 
z
" clip-path="url(#pd808ce142f)" style="fill: #87ceeb; fill-opacity: 0.6; stroke: #000000; stroke-linejoin: miter"/>
   </g>
   <g id="patch_12">
    <path d="M 262.486364 390.04 
L 282.340303 390.04 
L 282.340303 148.214526 
L 262.486364 148.214526 
z
" clip-path="url(#pd808ce142f)" style="fill: #87ceeb; fill-opacity: 0.6; stroke: #000000; stroke-linejoin: miter"/>
   </g>
   <g id="patch_13">
    <path d="M 282.340303 390.04 
L 302.194242 390.04 
L 302.194242 165.648455 
L 282.340303 165.648455 
z
" clip-path="url(#pd808ce142f)" style="fill: #87ceeb; fill-opacity: 0.6; stroke: #000000; stroke-linejoin: miter"/>
   </g>
   <g id="patch_14">
    <path d="M 302.194242 390.04 
L 322.048182 390.04 
L 322.048182 200.235122 
L 302.194242 200.235122 
z
" clip-path="url(#pd808ce142f)" style="fill: #87ceeb; fill-opacity: 0.6; stroke: #000000; stroke-linejoin: miter"/>
   </g>
   <g id="patch_15">
    <path d="M 322.048182 390.04 
L 341.902121 390.04 
L 341.902121 239.320867 
L 322.048182 239.320867 
z
" clip-path="url(#pd808ce142f)" style="fill: #87ceeb; fill-opacity: 0.6; stroke: #000000; stroke-linejoin: miter"/>
   </g>
   <g id="patch_16">
    <path d="M 341.902121 390.04 
L 361.756061 390.04 
L 361.756061 308.775393 
L 341.902121 308.775393 
z
" clip-path="url(#pd808ce142f)" style="fill: #87ceeb; fill-opacity: 0.6; stroke: #000000; stroke-linejoin: miter"/>
   </g>
   <g id="patch_17">
    <path d="M 361.756061 390.04 
L 381.61 390.04 
L 381.61 296.402927 
L 361.756061 296.402927 
z
" clip-path="url(#pd808ce142f)" style="fill: #87ceeb; fill-opacity: 0.6; stroke: #000000; stroke-linejoin: miter"/>
   </g>
   <g id="patch_18">
    <path d="M 381.61 390.04 
L 401.463939 390.04 
L 401.463939 304.276314 
L 381.61 304.276314 
z
" clip-path="url(#pd808ce142f)" style="fill: #87ceeb; fill-opacity: 0.6; stroke: #000000; stroke-linejoin: miter"/>
   </g>
   <g id="patch_19">
    <path d="M 401.463939 390.04 
L 421.317879 390.04 
L 421.317879 347.579946 
L 401.463939 347.579946 
z
" clip-path="url(#pd808ce142f)" style="fill: #87ceeb; fill-opacity: 0.6; stroke: #000000; stroke-linejoin: miter"/>
   </g>
   <g id="patch_20">
    <path d="M 421.317879 390.04 
L 441.171818 390.04 
L 441.171818 345.892791 
L 421.317879 345.892791 
z
" clip-path="url(#pd808ce142f)" style="fill: #87ceeb; fill-opacity: 0.6; stroke: #000000; stroke-linejoin: miter"/>
   </g>
   <g id="patch_21">
    <path d="M 441.171818 390.04 
L 461.025758 390.04 
L 461.025758 343.924444 
L 441.171818 343.924444 
z
" clip-path="url(#pd808ce142f)" style="fill: #87ceeb; fill-opacity: 0.6; stroke: #000000; stroke-linejoin: miter"/>
   </g>
   <g id="patch_22">
    <path d="M 461.025758 390.04 
L 480.879697 390.04 
L 480.879697 365.857453 
L 461.025758 365.857453 
z
" clip-path="url(#pd808ce142f)" style="fill: #87ceeb; fill-opacity: 0.6; stroke: #000000; stroke-linejoin: miter"/>
   </g>
   <g id="patch_23">
    <path d="M 480.879697 390.04 
L 500.733636 390.04 
L 500.733636 363.607913 
L 480.879697 363.607913 
z
" clip-path="url(#pd808ce142f)" style="fill: #87ceeb; fill-opacity: 0.6; stroke: #000000; stroke-linejoin: miter"/>
   </g>
   <g id="patch_24">
    <path d="M 500.733636 390.04 
L 520.587576 390.04 
L 520.587576 360.233604 
L 500.733636 360.233604 
z
" clip-path="url(#pd808ce142f)" style="fill: #87ceeb; fill-opacity: 0.6; stroke: #000000; stroke-linejoin: miter"/>
   </g>
   <g id="patch_25">
    <path d="M 520.587576 390.04 
L 540.441515 390.04 
L 540.441515 373.449648 
L 520.587576 373.449648 
z
" clip-path="url(#pd808ce142f)" style="fill: #87ceeb; fill-opacity: 0.6; stroke: #000000; stroke-linejoin: miter"/>
   </g>
   <g id="patch_26">
    <path d="M 540.441515 390.04 
L 560.295455 390.04 
L 560.295455 379.917073 
L 540.441515 379.917073 
z
" clip-path="url(#pd808ce142f)" style="fill: #87ceeb; fill-opacity: 0.6; stroke: #000000; stroke-linejoin: miter"/>
   </g>
   <g id="patch_27">
    <path d="M 560.295455 390.04 
L 580.149394 390.04 
L 580.149394 375.980379 
L 560.295455 375.980379 
z
" clip-path="url(#pd808ce142f)" style="fill: #87ceeb; fill-opacity: 0.6; stroke: #000000; stroke-linejoin: miter"/>
   </g>
   <g id="patch_28">
    <path d="M 580.149394 390.04 
L 600.003333 390.04 
L 600.003333 378.229919 
L 580.149394 378.229919 
z
" clip-path="url(#pd808ce142f)" style="fill: #87ceeb; fill-opacity: 0.6; stroke: #000000; stroke-linejoin: miter"/>
   </g>
   <g id="patch_29">
    <path d="M 600.003333 390.04 
L 619.857273 390.04 
L 619.857273 379.354688 
L 600.003333 379.354688 
z
" clip-path="url(#pd808ce142f)" style="fill: #87ceeb; fill-opacity: 0.6; stroke: #000000; stroke-linejoin: miter"/>
   </g>
   <g id="patch_30">
    <path d="M 619.857273 390.04 
L 639.711212 390.04 
L 639.711212 381.041843 
L 619.857273 381.041843 
z
" clip-path="url(#pd808ce142f)" style="fill: #87ceeb; fill-opacity: 0.6; stroke: #000000; stroke-linejoin: miter"/>
   </g>
   <g id="patch_31">
    <path d="M 639.711212 390.04 
L 659.565152 390.04 
L 659.565152 381.323035 
L 639.711212 381.323035 
z
" clip-path="url(#pd808ce142f)" style="fill: #87ceeb; fill-opacity: 0.6; stroke: #000000; stroke-linejoin: miter"/>
   </g>
   <g id="patch_32">
    <path d="M 659.565152 390.04 
L 679.419091 390.04 
L 679.419091 383.853767 
L 659.565152 383.853767 
z
" clip-path="url(#pd808ce142f)" style="fill: #87ceeb; fill-opacity: 0.6; stroke: #000000; stroke-linejoin: miter"/>
   </g>
   <g id="patch_33">
    <path d="M 83.800909 390.04 
L 103.654848 390.04 
L 103.654848 361.302094 
L 83.800909 361.302094 
z
" clip-path="url(#pd808ce142f)" style="fill: #fa8072; fill-opacity: 0.6; stroke: #000000; stroke-linejoin: miter"/>
   </g>
   <g id="patch_34">
    <path d="M 103.654848 390.04 
L 123.508788 390.04 
L 123.508788 326.406064 
L 103.654848 326.406064 
z
" clip-path="url(#pd808ce142f)" style="fill: #fa8072; fill-opacity: 0.6; stroke: #000000; stroke-linejoin: miter"/>
   </g>
   <g id="patch_35">
    <path d="M 123.508788 390.04 
L 143.362727 390.04 
L 143.362727 272.693549 
L 123.508788 272.693549 
z
" clip-path="url(#pd808ce142f)" style="fill: #fa8072; fill-opacity: 0.6; stroke: #000000; stroke-linejoin: miter"/>
   </g>
   <g id="patch_36">
    <path d="M 143.362727 390.04 
L 163.216667 390.04 
L 163.216667 280.220143 
L 143.362727 280.220143 
z
" clip-path="url(#pd808ce142f)" style="fill: #fa8072; fill-opacity: 0.6; stroke: #000000; stroke-linejoin: miter"/>
   </g>
   <g id="patch_37">
    <path d="M 163.216667 390.04 
L 183.070606 390.04 
L 183.070606 172.452994 
L 163.216667 172.452994 
z
" clip-path="url(#pd808ce142f)" style="fill: #fa8072; fill-opacity: 0.6; stroke: #000000; stroke-linejoin: miter"/>
   </g>
   <g id="patch_38">
    <path d="M 183.070606 390.04 
L 202.924545 390.04 
L 202.924545 85.555039 
L 183.070606 85.555039 
z
" clip-path="url(#pd808ce142f)" style="fill: #fa8072; fill-opacity: 0.6; stroke: #000000; stroke-linejoin: miter"/>
   </g>
   <g id="patch_39">
    <path d="M 202.924545 390.04 
L 222.778485 390.04 
L 222.778485 139.609672 
L 202.924545 139.609672 
z
" clip-path="url(#pd808ce142f)" style="fill: #fa8072; fill-opacity: 0.6; stroke: #000000; stroke-linejoin: miter"/>
   </g>
   <g id="patch_40">
    <path d="M 222.778485 390.04 
L 242.632424 390.04 
L 242.632424 58.527722 
L 222.778485 58.527722 
z
" clip-path="url(#pd808ce142f)" style="fill: #fa8072; fill-opacity: 0.6; stroke: #000000; stroke-linejoin: miter"/>
   </g>
   <g id="patch_41">
    <path d="M 242.632424 390.04 
L 262.486364 390.04 
L 262.486364 48.94842 
L 242.632424 48.94842 
z
" clip-path="url(#pd808ce142f)" style="fill: #fa8072; fill-opacity: 0.6; stroke: #000000; stroke-linejoin: miter"/>
   </g>
   <g id="patch_42">
    <path d="M 262.486364 390.04 
L 282.340303 390.04 
L 282.340303 149.188974 
L 262.486364 149.188974 
z
" clip-path="url(#pd808ce142f)" style="fill: #fa8072; fill-opacity: 0.6; stroke: #000000; stroke-linejoin: miter"/>
   </g>
   <g id="patch_43">
    <path d="M 282.340303 390.04 
L 302.194242 390.04 
L 302.194242 133.793667 
L 282.340303 133.793667 
z
" clip-path="url(#pd808ce142f)" style="fill: #fa8072; fill-opacity: 0.6; stroke: #000000; stroke-linejoin: miter"/>
   </g>
   <g id="patch_44">
    <path d="M 302.194242 390.04 
L 322.048182 390.04 
L 322.048182 173.479348 
L 302.194242 173.479348 
z
" clip-path="url(#pd808ce142f)" style="fill: #fa8072; fill-opacity: 0.6; stroke: #000000; stroke-linejoin: miter"/>
   </g>
   <g id="patch_45">
    <path d="M 322.048182 390.04 
L 341.902121 390.04 
L 341.902121 218.296797 
L 322.048182 218.296797 
z
" clip-path="url(#pd808ce142f)" style="fill: #fa8072; fill-opacity: 0.6; stroke: #000000; stroke-linejoin: miter"/>
   </g>
   <g id="patch_46">
    <path d="M 341.902121 390.04 
L 361.756061 390.04 
L 361.756061 291.852153 
L 341.902121 291.852153 
z
" clip-path="url(#pd808ce142f)" style="fill: #fa8072; fill-opacity: 0.6; stroke: #000000; stroke-linejoin: miter"/>
   </g>
   <g id="patch_47">
    <path d="M 361.756061 390.04 
L 381.61 390.04 
L 381.61 297.32604 
L 361.756061 297.32604 
z
" clip-path="url(#pd808ce142f)" style="fill: #fa8072; fill-opacity: 0.6; stroke: #000000; stroke-linejoin: miter"/>
   </g>
   <g id="patch_48">
    <path d="M 381.61 390.04 
L 401.463939 390.04 
L 401.463939 291.852153 
L 381.61 291.852153 
z
" clip-path="url(#pd808ce142f)" style="fill: #fa8072; fill-opacity: 0.6; stroke: #000000; stroke-linejoin: miter"/>
   </g>
   <g id="patch_49">
    <path d="M 401.463939 390.04 
L 421.317879 390.04 
L 421.317879 346.591022 
L 401.463939 346.591022 
z
" clip-path="url(#pd808ce142f)" style="fill: #fa8072; fill-opacity: 0.6; stroke: #000000; stroke-linejoin: miter"/>
   </g>
   <g id="patch_50">
    <path d="M 421.317879 390.04 
L 441.171818 390.04 
L 441.171818 352.407027 
L 421.317879 352.407027 
z
" clip-path="url(#pd808ce142f)" style="fill: #fa8072; fill-opacity: 0.6; stroke: #000000; stroke-linejoin: miter"/>
   </g>
   <g id="patch_51">
    <path d="M 441.171818 390.04 
L 461.025758 390.04 
L 461.025758 346.248904 
L 441.171818 346.248904 
z
" clip-path="url(#pd808ce142f)" style="fill: #fa8072; fill-opacity: 0.6; stroke: #000000; stroke-linejoin: miter"/>
   </g>
   <g id="patch_52">
    <path d="M 461.025758 390.04 
L 480.879697 390.04 
L 480.879697 368.144452 
L 461.025758 368.144452 
z
" clip-path="url(#pd808ce142f)" style="fill: #fa8072; fill-opacity: 0.6; stroke: #000000; stroke-linejoin: miter"/>
   </g>
   <g id="patch_53">
    <path d="M 480.879697 390.04 
L 500.733636 390.04 
L 500.733636 366.433863 
L 480.879697 366.433863 
z
" clip-path="url(#pd808ce142f)" style="fill: #fa8072; fill-opacity: 0.6; stroke: #000000; stroke-linejoin: miter"/>
   </g>
   <g id="patch_54">
    <path d="M 500.733636 390.04 
L 520.587576 390.04 
L 520.587576 368.48657 
L 500.733636 368.48657 
z
" clip-path="url(#pd808ce142f)" style="fill: #fa8072; fill-opacity: 0.6; stroke: #000000; stroke-linejoin: miter"/>
   </g>
   <g id="patch_55">
    <path d="M 520.587576 390.04 
L 540.441515 390.04 
L 540.441515 373.960457 
L 520.587576 373.960457 
z
" clip-path="url(#pd808ce142f)" style="fill: #fa8072; fill-opacity: 0.6; stroke: #000000; stroke-linejoin: miter"/>
   </g>
   <g id="patch_56">
    <path d="M 540.441515 390.04 
L 560.295455 390.04 
L 560.295455 380.460698 
L 540.441515 380.460698 
z
" clip-path="url(#pd808ce142f)" style="fill: #fa8072; fill-opacity: 0.6; stroke: #000000; stroke-linejoin: miter"/>
   </g>
   <g id="patch_57">
    <path d="M 560.295455 390.04 
L 580.149394 390.04 
L 580.149394 374.644693 
L 560.295455 374.644693 
z
" clip-path="url(#pd808ce142f)" style="fill: #fa8072; fill-opacity: 0.6; stroke: #000000; stroke-linejoin: miter"/>
   </g>
   <g id="patch_58">
    <path d="M 580.149394 390.04 
L 600.003333 390.04 
L 600.003333 381.82917 
L 580.149394 381.82917 
z
" clip-path="url(#pd808ce142f)" style="fill: #fa8072; fill-opacity: 0.6; stroke: #000000; stroke-linejoin: miter"/>
   </g>
   <g id="patch_59">
    <path d="M 600.003333 390.04 
L 619.857273 390.04 
L 619.857273 385.592467 
L 600.003333 385.592467 
z
" clip-path="url(#pd808ce142f)" style="fill: #fa8072; fill-opacity: 0.6; stroke: #000000; stroke-linejoin: miter"/>
   </g>
   <g id="patch_60">
    <path d="M 619.857273 390.04 
L 639.711212 390.04 
L 639.711212 380.11858 
L 619.857273 380.11858 
z
" clip-path="url(#pd808ce142f)" style="fill: #fa8072; fill-opacity: 0.6; stroke: #000000; stroke-linejoin: miter"/>
   </g>
   <g id="patch_61">
    <path d="M 639.711212 390.04 
L 659.565152 390.04 
L 659.565152 382.513405 
L 639.711212 382.513405 
z
" clip-path="url(#pd808ce142f)" style="fill: #fa8072; fill-opacity: 0.6; stroke: #000000; stroke-linejoin: miter"/>
   </g>
   <g id="patch_62">
    <path d="M 659.565152 390.04 
L 679.419091 390.04 
L 679.419091 382.171288 
L 659.565152 382.171288 
z
" clip-path="url(#pd808ce142f)" style="fill: #fa8072; fill-opacity: 0.6; stroke: #000000; stroke-linejoin: miter"/>
   </g>
   <g id="matplotlib.axis_1">
    <g id="xtick_1">
     <g id="line2d_1">
      <path d="M 73.06905 390.04 
L 73.06905 26.88 
" clip-path="url(#pd808ce142f)" style="fill: none; stroke: #b0b0b0; stroke-opacity: 0.3; stroke-width: 0.8; stroke-linecap: square"/>
     </g>
     <g id="line2d_2">
      <defs>
       <path id="m314c10234b" d="M 0 0 
L 0 3.5 
" style="stroke: #000000; stroke-width: 0.8"/>
      </defs>
      <g>
       <use xlink:href="#m314c10234b" x="73.06905" y="390.04" style="stroke: #000000; stroke-width: 0.8"/>
      </g>
     </g>
     <g id="text_1">
      <!-- 14 -->
      <g transform="translate(66.70655 404.638438) scale(0.1 -0.1)">
       <defs>
        <path id="DejaVuSans-31" d="M 794 531 
L 1825 531 
L 1825 4091 
L 703 3866 
L 703 4441 
L 1819 4666 
L 2450 4666 
L 2450 531 
L 3481 531 
L 3481 0 
L 794 0 
L 794 531 
z
" transform="scale(0.015625)"/>
        <path id="DejaVuSans-34" d="M 2419 4116 
L 825 1625 
L 2419 1625 
L 2419 4116 
z
M 2253 4666 
L 3047 4666 
L 3047 1625 
L 3713 1625 
L 3713 1100 
L 3047 1100 
L 3047 0 
L 2419 0 
L 2419 1100 
L 313 1100 
L 313 1709 
L 2253 4666 
z
" transform="scale(0.015625)"/>
       </defs>
       <use xlink:href="#DejaVuSans-31"/>
       <use xlink:href="#DejaVuSans-34" transform="translate(63.623047 0)"/>
      </g>
     </g>
    </g>
    <g id="xtick_2">
     <g id="line2d_3">
      <path d="M 180.387641 390.04 
L 180.387641 26.88 
" clip-path="url(#pd808ce142f)" style="fill: none; stroke: #b0b0b0; stroke-opacity: 0.3; stroke-width: 0.8; stroke-linecap: square"/>
     </g>
     <g id="line2d_4">
      <g>
       <use xlink:href="#m314c10234b" x="180.387641" y="390.04" style="stroke: #000000; stroke-width: 0.8"/>
      </g>
     </g>
     <g id="text_2">
      <!-- 16 -->
      <g transform="translate(174.025141 404.638438) scale(0.1 -0.1)">
       <defs>
        <path id="DejaVuSans-36" d="M 2113 2584 
Q 1688 2584 1439 2293 
Q 1191 2003 1191 1497 
Q 1191 994 1439 701 
Q 1688 409 2113 409 
Q 2538 409 2786 701 
Q 3034 994 3034 1497 
Q 3034 2003 2786 2293 
Q 2538 2584 2113 2584 
z
M 3366 4563 
L 3366 3988 
Q 3128 4100 2886 4159 
Q 2644 4219 2406 4219 
Q 1781 4219 1451 3797 
Q 1122 3375 1075 2522 
Q 1259 2794 1537 2939 
Q 1816 3084 2150 3084 
Q 2853 3084 3261 2657 
Q 3669 2231 3669 1497 
Q 3669 778 3244 343 
Q 2819 -91 2113 -91 
Q 1303 -91 875 529 
Q 447 1150 447 2328 
Q 447 3434 972 4092 
Q 1497 4750 2381 4750 
Q 2619 4750 2861 4703 
Q 3103 4656 3366 4563 
z
" transform="scale(0.015625)"/>
       </defs>
       <use xlink:href="#DejaVuSans-31"/>
       <use xlink:href="#DejaVuSans-36" transform="translate(63.623047 0)"/>
      </g>
     </g>
    </g>
    <g id="xtick_3">
     <g id="line2d_5">
      <path d="M 287.706233 390.04 
L 287.706233 26.88 
" clip-path="url(#pd808ce142f)" style="fill: none; stroke: #b0b0b0; stroke-opacity: 0.3; stroke-width: 0.8; stroke-linecap: square"/>
     </g>
     <g id="line2d_6">
      <g>
       <use xlink:href="#m314c10234b" x="287.706233" y="390.04" style="stroke: #000000; stroke-width: 0.8"/>
      </g>
     </g>
     <g id="text_3">
      <!-- 18 -->
      <g transform="translate(281.343733 404.638438) scale(0.1 -0.1)">
       <defs>
        <path id="DejaVuSans-38" d="M 2034 2216 
Q 1584 2216 1326 1975 
Q 1069 1734 1069 1313 
Q 1069 891 1326 650 
Q 1584 409 2034 409 
Q 2484 409 2743 651 
Q 3003 894 3003 1313 
Q 3003 1734 2745 1975 
Q 2488 2216 2034 2216 
z
M 1403 2484 
Q 997 2584 770 2862 
Q 544 3141 544 3541 
Q 544 4100 942 4425 
Q 1341 4750 2034 4750 
Q 2731 4750 3128 4425 
Q 3525 4100 3525 3541 
Q 3525 3141 3298 2862 
Q 3072 2584 2669 2484 
Q 3125 2378 3379 2068 
Q 3634 1759 3634 1313 
Q 3634 634 3220 271 
Q 2806 -91 2034 -91 
Q 1263 -91 848 271 
Q 434 634 434 1313 
Q 434 1759 690 2068 
Q 947 2378 1403 2484 
z
M 1172 3481 
Q 1172 3119 1398 2916 
Q 1625 2713 2034 2713 
Q 2441 2713 2670 2916 
Q 2900 3119 2900 3481 
Q 2900 3844 2670 4047 
Q 2441 4250 2034 4250 
Q 1625 4250 1398 4047 
Q 1172 3844 1172 3481 
z
" transform="scale(0.015625)"/>
       </defs>
       <use xlink:href="#DejaVuSans-31"/>
       <use xlink:href="#DejaVuSans-38" transform="translate(63.623047 0)"/>
      </g>
     </g>
    </g>
    <g id="xtick_4">
     <g id="line2d_7">
      <path d="M 395.024824 390.04 
L 395.024824 26.88 
" clip-path="url(#pd808ce142f)" style="fill: none; stroke: #b0b0b0; stroke-opacity: 0.3; stroke-width: 0.8; stroke-linecap: square"/>
     </g>
     <g id="line2d_8">
      <g>
       <use xlink:href="#m314c10234b" x="395.024824" y="390.04" style="stroke: #000000; stroke-width: 0.8"/>
      </g>
     </g>
     <g id="text_4">
      <!-- 20 -->
      <g transform="translate(388.662324 404.638438) scale(0.1 -0.1)">
       <defs>
        <path id="DejaVuSans-32" d="M 1228 531 
L 3431 531 
L 3431 0 
L 469 0 
L 469 531 
Q 828 903 1448 1529 
Q 2069 2156 2228 2338 
Q 2531 2678 2651 2914 
Q 2772 3150 2772 3378 
Q 2772 3750 2511 3984 
Q 2250 4219 1831 4219 
Q 1534 4219 1204 4116 
Q 875 4013 500 3803 
L 500 4441 
Q 881 4594 1212 4672 
Q 1544 4750 1819 4750 
Q 2544 4750 2975 4387 
Q 3406 4025 3406 3419 
Q 3406 3131 3298 2873 
Q 3191 2616 2906 2266 
Q 2828 2175 2409 1742 
Q 1991 1309 1228 531 
z
" transform="scale(0.015625)"/>
        <path id="DejaVuSans-30" d="M 2034 4250 
Q 1547 4250 1301 3770 
Q 1056 3291 1056 2328 
Q 1056 1369 1301 889 
Q 1547 409 2034 409 
Q 2525 409 2770 889 
Q 3016 1369 3016 2328 
Q 3016 3291 2770 3770 
Q 2525 4250 2034 4250 
z
M 2034 4750 
Q 2819 4750 3233 4129 
Q 3647 3509 3647 2328 
Q 3647 1150 3233 529 
Q 2819 -91 2034 -91 
Q 1250 -91 836 529 
Q 422 1150 422 2328 
Q 422 3509 836 4129 
Q 1250 4750 2034 4750 
z
" transform="scale(0.015625)"/>
       </defs>
       <use xlink:href="#DejaVuSans-32"/>
       <use xlink:href="#DejaVuSans-30" transform="translate(63.623047 0)"/>
      </g>
     </g>
    </g>
    <g id="xtick_5">
     <g id="line2d_9">
      <path d="M 502.343415 390.04 
L 502.343415 26.88 
" clip-path="url(#pd808ce142f)" style="fill: none; stroke: #b0b0b0; stroke-opacity: 0.3; stroke-width: 0.8; stroke-linecap: square"/>
     </g>
     <g id="line2d_10">
      <g>
       <use xlink:href="#m314c10234b" x="502.343415" y="390.04" style="stroke: #000000; stroke-width: 0.8"/>
      </g>
     </g>
     <g id="text_5">
      <!-- 22 -->
      <g transform="translate(495.980915 404.638438) scale(0.1 -0.1)">
       <use xlink:href="#DejaVuSans-32"/>
       <use xlink:href="#DejaVuSans-32" transform="translate(63.623047 0)"/>
      </g>
     </g>
    </g>
    <g id="xtick_6">
     <g id="line2d_11">
      <path d="M 609.662007 390.04 
L 609.662007 26.88 
" clip-path="url(#pd808ce142f)" style="fill: none; stroke: #b0b0b0; stroke-opacity: 0.3; stroke-width: 0.8; stroke-linecap: square"/>
     </g>
     <g id="line2d_12">
      <g>
       <use xlink:href="#m314c10234b" x="609.662007" y="390.04" style="stroke: #000000; stroke-width: 0.8"/>
      </g>
     </g>
     <g id="text_6">
      <!-- 24 -->
      <g transform="translate(603.299507 404.638438) scale(0.1 -0.1)">
       <use xlink:href="#DejaVuSans-32"/>
       <use xlink:href="#DejaVuSans-34" transform="translate(63.623047 0)"/>
      </g>
     </g>
    </g>
    <g id="text_7">
     <!-- FKGL Score -->
     <g transform="translate(353.20375 418.316562) scale(0.1 -0.1)">
      <defs>
       <path id="DejaVuSans-46" d="M 628 4666 
L 3309 4666 
L 3309 4134 
L 1259 4134 
L 1259 2759 
L 3109 2759 
L 3109 2228 
L 1259 2228 
L 1259 0 
L 628 0 
L 628 4666 
z
" transform="scale(0.015625)"/>
       <path id="DejaVuSans-4b" d="M 628 4666 
L 1259 4666 
L 1259 2694 
L 3353 4666 
L 4166 4666 
L 1850 2491 
L 4331 0 
L 3500 0 
L 1259 2247 
L 1259 0 
L 628 0 
L 628 4666 
z
" transform="scale(0.015625)"/>
       <path id="DejaVuSans-47" d="M 3809 666 
L 3809 1919 
L 2778 1919 
L 2778 2438 
L 4434 2438 
L 4434 434 
Q 4069 175 3628 42 
Q 3188 -91 2688 -91 
Q 1594 -91 976 548 
Q 359 1188 359 2328 
Q 359 3472 976 4111 
Q 1594 4750 2688 4750 
Q 3144 4750 3555 4637 
Q 3966 4525 4313 4306 
L 4313 3634 
Q 3963 3931 3569 4081 
Q 3175 4231 2741 4231 
Q 1884 4231 1454 3753 
Q 1025 3275 1025 2328 
Q 1025 1384 1454 906 
Q 1884 428 2741 428 
Q 3075 428 3337 486 
Q 3600 544 3809 666 
z
" transform="scale(0.015625)"/>
       <path id="DejaVuSans-4c" d="M 628 4666 
L 1259 4666 
L 1259 531 
L 3531 531 
L 3531 0 
L 628 0 
L 628 4666 
z
" transform="scale(0.015625)"/>
       <path id="DejaVuSans-20" transform="scale(0.015625)"/>
       <path id="DejaVuSans-53" d="M 3425 4513 
L 3425 3897 
Q 3066 4069 2747 4153 
Q 2428 4238 2131 4238 
Q 1616 4238 1336 4038 
Q 1056 3838 1056 3469 
Q 1056 3159 1242 3001 
Q 1428 2844 1947 2747 
L 2328 2669 
Q 3034 2534 3370 2195 
Q 3706 1856 3706 1288 
Q 3706 609 3251 259 
Q 2797 -91 1919 -91 
Q 1588 -91 1214 -16 
Q 841 59 441 206 
L 441 856 
Q 825 641 1194 531 
Q 1563 422 1919 422 
Q 2459 422 2753 634 
Q 3047 847 3047 1241 
Q 3047 1584 2836 1778 
Q 2625 1972 2144 2069 
L 1759 2144 
Q 1053 2284 737 2584 
Q 422 2884 422 3419 
Q 422 4038 858 4394 
Q 1294 4750 2059 4750 
Q 2388 4750 2728 4690 
Q 3069 4631 3425 4513 
z
" transform="scale(0.015625)"/>
       <path id="DejaVuSans-63" d="M 3122 3366 
L 3122 2828 
Q 2878 2963 2633 3030 
Q 2388 3097 2138 3097 
Q 1578 3097 1268 2742 
Q 959 2388 959 1747 
Q 959 1106 1268 751 
Q 1578 397 2138 397 
Q 2388 397 2633 464 
Q 2878 531 3122 666 
L 3122 134 
Q 2881 22 2623 -34 
Q 2366 -91 2075 -91 
Q 1284 -91 818 406 
Q 353 903 353 1747 
Q 353 2603 823 3093 
Q 1294 3584 2113 3584 
Q 2378 3584 2631 3529 
Q 2884 3475 3122 3366 
z
" transform="scale(0.015625)"/>
       <path id="DejaVuSans-6f" d="M 1959 3097 
Q 1497 3097 1228 2736 
Q 959 2375 959 1747 
Q 959 1119 1226 758 
Q 1494 397 1959 397 
Q 2419 397 2687 759 
Q 2956 1122 2956 1747 
Q 2956 2369 2687 2733 
Q 2419 3097 1959 3097 
z
M 1959 3584 
Q 2709 3584 3137 3096 
Q 3566 2609 3566 1747 
Q 3566 888 3137 398 
Q 2709 -91 1959 -91 
Q 1206 -91 779 398 
Q 353 888 353 1747 
Q 353 2609 779 3096 
Q 1206 3584 1959 3584 
z
" transform="scale(0.015625)"/>
       <path id="DejaVuSans-72" d="M 2631 2963 
Q 2534 3019 2420 3045 
Q 2306 3072 2169 3072 
Q 1681 3072 1420 2755 
Q 1159 2438 1159 1844 
L 1159 0 
L 581 0 
L 581 3500 
L 1159 3500 
L 1159 2956 
Q 1341 3275 1631 3429 
Q 1922 3584 2338 3584 
Q 2397 3584 2469 3576 
Q 2541 3569 2628 3553 
L 2631 2963 
z
" transform="scale(0.015625)"/>
       <path id="DejaVuSans-65" d="M 3597 1894 
L 3597 1613 
L 953 1613 
Q 991 1019 1311 708 
Q 1631 397 2203 397 
Q 2534 397 2845 478 
Q 3156 559 3463 722 
L 3463 178 
Q 3153 47 2828 -22 
Q 2503 -91 2169 -91 
Q 1331 -91 842 396 
Q 353 884 353 1716 
Q 353 2575 817 3079 
Q 1281 3584 2069 3584 
Q 2775 3584 3186 3129 
Q 3597 2675 3597 1894 
z
M 3022 2063 
Q 3016 2534 2758 2815 
Q 2500 3097 2075 3097 
Q 1594 3097 1305 2825 
Q 1016 2553 972 2059 
L 3022 2063 
z
" transform="scale(0.015625)"/>
      </defs>
      <use xlink:href="#DejaVuSans-46"/>
      <use xlink:href="#DejaVuSans-4b" transform="translate(57.519531 0)"/>
      <use xlink:href="#DejaVuSans-47" transform="translate(123.095703 0)"/>
      <use xlink:href="#DejaVuSans-4c" transform="translate(200.585938 0)"/>
      <use xlink:href="#DejaVuSans-20" transform="translate(256.298828 0)"/>
      <use xlink:href="#DejaVuSans-53" transform="translate(288.085938 0)"/>
      <use xlink:href="#DejaVuSans-63" transform="translate(351.5625 0)"/>
      <use xlink:href="#DejaVuSans-6f" transform="translate(406.542969 0)"/>
      <use xlink:href="#DejaVuSans-72" transform="translate(467.724609 0)"/>
      <use xlink:href="#DejaVuSans-65" transform="translate(506.587891 0)"/>
     </g>
    </g>
   </g>
   <g id="matplotlib.axis_2">
    <g id="ytick_1">
     <g id="line2d_13">
      <path d="M 54.02 390.04 
L 709.2 390.04 
" clip-path="url(#pd808ce142f)" style="fill: none; stroke: #b0b0b0; stroke-opacity: 0.3; stroke-width: 0.8; stroke-linecap: square"/>
     </g>
     <g id="line2d_14">
      <defs>
       <path id="m74dad5f486" d="M 0 0 
L -3.5 0 
" style="stroke: #000000; stroke-width: 0.8"/>
      </defs>
      <g>
       <use xlink:href="#m74dad5f486" x="54.02" y="390.04" style="stroke: #000000; stroke-width: 0.8"/>
      </g>
     </g>
     <g id="text_8">
      <!-- 0.00 -->
      <g transform="translate(24.754375 393.839219) scale(0.1 -0.1)">
       <defs>
        <path id="DejaVuSans-2e" d="M 684 794 
L 1344 794 
L 1344 0 
L 684 0 
L 684 794 
z
" transform="scale(0.015625)"/>
       </defs>
       <use xlink:href="#DejaVuSans-30"/>
       <use xlink:href="#DejaVuSans-2e" transform="translate(63.623047 0)"/>
       <use xlink:href="#DejaVuSans-30" transform="translate(95.410156 0)"/>
       <use xlink:href="#DejaVuSans-30" transform="translate(159.033203 0)"/>
      </g>
     </g>
    </g>
    <g id="ytick_2">
     <g id="line2d_15">
      <path d="M 54.02 330.653287 
L 709.2 330.653287 
" clip-path="url(#pd808ce142f)" style="fill: none; stroke: #b0b0b0; stroke-opacity: 0.3; stroke-width: 0.8; stroke-linecap: square"/>
     </g>
     <g id="line2d_16">
      <g>
       <use xlink:href="#m74dad5f486" x="54.02" y="330.653287" style="stroke: #000000; stroke-width: 0.8"/>
      </g>
     </g>
     <g id="text_9">
      <!-- 0.05 -->
      <g transform="translate(24.754375 334.452506) scale(0.1 -0.1)">
       <defs>
        <path id="DejaVuSans-35" d="M 691 4666 
L 3169 4666 
L 3169 4134 
L 1269 4134 
L 1269 2991 
Q 1406 3038 1543 3061 
Q 1681 3084 1819 3084 
Q 2600 3084 3056 2656 
Q 3513 2228 3513 1497 
Q 3513 744 3044 326 
Q 2575 -91 1722 -91 
Q 1428 -91 1123 -41 
Q 819 9 494 109 
L 494 744 
Q 775 591 1075 516 
Q 1375 441 1709 441 
Q 2250 441 2565 725 
Q 2881 1009 2881 1497 
Q 2881 1984 2565 2268 
Q 2250 2553 1709 2553 
Q 1456 2553 1204 2497 
Q 953 2441 691 2322 
L 691 4666 
z
" transform="scale(0.015625)"/>
       </defs>
       <use xlink:href="#DejaVuSans-30"/>
       <use xlink:href="#DejaVuSans-2e" transform="translate(63.623047 0)"/>
       <use xlink:href="#DejaVuSans-30" transform="translate(95.410156 0)"/>
       <use xlink:href="#DejaVuSans-35" transform="translate(159.033203 0)"/>
      </g>
     </g>
    </g>
    <g id="ytick_3">
     <g id="line2d_17">
      <path d="M 54.02 271.266575 
L 709.2 271.266575 
" clip-path="url(#pd808ce142f)" style="fill: none; stroke: #b0b0b0; stroke-opacity: 0.3; stroke-width: 0.8; stroke-linecap: square"/>
     </g>
     <g id="line2d_18">
      <g>
       <use xlink:href="#m74dad5f486" x="54.02" y="271.266575" style="stroke: #000000; stroke-width: 0.8"/>
      </g>
     </g>
     <g id="text_10">
      <!-- 0.10 -->
      <g transform="translate(24.754375 275.065793) scale(0.1 -0.1)">
       <use xlink:href="#DejaVuSans-30"/>
       <use xlink:href="#DejaVuSans-2e" transform="translate(63.623047 0)"/>
       <use xlink:href="#DejaVuSans-31" transform="translate(95.410156 0)"/>
       <use xlink:href="#DejaVuSans-30" transform="translate(159.033203 0)"/>
      </g>
     </g>
    </g>
    <g id="ytick_4">
     <g id="line2d_19">
      <path d="M 54.02 211.879862 
L 709.2 211.879862 
" clip-path="url(#pd808ce142f)" style="fill: none; stroke: #b0b0b0; stroke-opacity: 0.3; stroke-width: 0.8; stroke-linecap: square"/>
     </g>
     <g id="line2d_20">
      <g>
       <use xlink:href="#m74dad5f486" x="54.02" y="211.879862" style="stroke: #000000; stroke-width: 0.8"/>
      </g>
     </g>
     <g id="text_11">
      <!-- 0.15 -->
      <g transform="translate(24.754375 215.679081) scale(0.1 -0.1)">
       <use xlink:href="#DejaVuSans-30"/>
       <use xlink:href="#DejaVuSans-2e" transform="translate(63.623047 0)"/>
       <use xlink:href="#DejaVuSans-31" transform="translate(95.410156 0)"/>
       <use xlink:href="#DejaVuSans-35" transform="translate(159.033203 0)"/>
      </g>
     </g>
    </g>
    <g id="ytick_5">
     <g id="line2d_21">
      <path d="M 54.02 152.493149 
L 709.2 152.493149 
" clip-path="url(#pd808ce142f)" style="fill: none; stroke: #b0b0b0; stroke-opacity: 0.3; stroke-width: 0.8; stroke-linecap: square"/>
     </g>
     <g id="line2d_22">
      <g>
       <use xlink:href="#m74dad5f486" x="54.02" y="152.493149" style="stroke: #000000; stroke-width: 0.8"/>
      </g>
     </g>
     <g id="text_12">
      <!-- 0.20 -->
      <g transform="translate(24.754375 156.292368) scale(0.1 -0.1)">
       <use xlink:href="#DejaVuSans-30"/>
       <use xlink:href="#DejaVuSans-2e" transform="translate(63.623047 0)"/>
       <use xlink:href="#DejaVuSans-32" transform="translate(95.410156 0)"/>
       <use xlink:href="#DejaVuSans-30" transform="translate(159.033203 0)"/>
      </g>
     </g>
    </g>
    <g id="ytick_6">
     <g id="line2d_23">
      <path d="M 54.02 93.106437 
L 709.2 93.106437 
" clip-path="url(#pd808ce142f)" style="fill: none; stroke: #b0b0b0; stroke-opacity: 0.3; stroke-width: 0.8; stroke-linecap: square"/>
     </g>
     <g id="line2d_24">
      <g>
       <use xlink:href="#m74dad5f486" x="54.02" y="93.106437" style="stroke: #000000; stroke-width: 0.8"/>
      </g>
     </g>
     <g id="text_13">
      <!-- 0.25 -->
      <g transform="translate(24.754375 96.905656) scale(0.1 -0.1)">
       <use xlink:href="#DejaVuSans-30"/>
       <use xlink:href="#DejaVuSans-2e" transform="translate(63.623047 0)"/>
       <use xlink:href="#DejaVuSans-32" transform="translate(95.410156 0)"/>
       <use xlink:href="#DejaVuSans-35" transform="translate(159.033203 0)"/>
      </g>
     </g>
    </g>
    <g id="ytick_7">
     <g id="line2d_25">
      <path d="M 54.02 33.719724 
L 709.2 33.719724 
" clip-path="url(#pd808ce142f)" style="fill: none; stroke: #b0b0b0; stroke-opacity: 0.3; stroke-width: 0.8; stroke-linecap: square"/>
     </g>
     <g id="line2d_26">
      <g>
       <use xlink:href="#m74dad5f486" x="54.02" y="33.719724" style="stroke: #000000; stroke-width: 0.8"/>
      </g>
     </g>
     <g id="text_14">
      <!-- 0.30 -->
      <g transform="translate(24.754375 37.518943) scale(0.1 -0.1)">
       <defs>
        <path id="DejaVuSans-33" d="M 2597 2516 
Q 3050 2419 3304 2112 
Q 3559 1806 3559 1356 
Q 3559 666 3084 287 
Q 2609 -91 1734 -91 
Q 1441 -91 1130 -33 
Q 819 25 488 141 
L 488 750 
Q 750 597 1062 519 
Q 1375 441 1716 441 
Q 2309 441 2620 675 
Q 2931 909 2931 1356 
Q 2931 1769 2642 2001 
Q 2353 2234 1838 2234 
L 1294 2234 
L 1294 2753 
L 1863 2753 
Q 2328 2753 2575 2939 
Q 2822 3125 2822 3475 
Q 2822 3834 2567 4026 
Q 2313 4219 1838 4219 
Q 1578 4219 1281 4162 
Q 984 4106 628 3988 
L 628 4550 
Q 988 4650 1302 4700 
Q 1616 4750 1894 4750 
Q 2613 4750 3031 4423 
Q 3450 4097 3450 3541 
Q 3450 3153 3228 2886 
Q 3006 2619 2597 2516 
z
" transform="scale(0.015625)"/>
       </defs>
       <use xlink:href="#DejaVuSans-30"/>
       <use xlink:href="#DejaVuSans-2e" transform="translate(63.623047 0)"/>
       <use xlink:href="#DejaVuSans-33" transform="translate(95.410156 0)"/>
       <use xlink:href="#DejaVuSans-30" transform="translate(159.033203 0)"/>
      </g>
     </g>
    </g>
    <g id="text_15">
     <!-- Density -->
     <g transform="translate(18.674688 227.468594) rotate(-90) scale(0.1 -0.1)">
      <defs>
       <path id="DejaVuSans-44" d="M 1259 4147 
L 1259 519 
L 2022 519 
Q 2988 519 3436 956 
Q 3884 1394 3884 2338 
Q 3884 3275 3436 3711 
Q 2988 4147 2022 4147 
L 1259 4147 
z
M 628 4666 
L 1925 4666 
Q 3281 4666 3915 4102 
Q 4550 3538 4550 2338 
Q 4550 1131 3912 565 
Q 3275 0 1925 0 
L 628 0 
L 628 4666 
z
" transform="scale(0.015625)"/>
       <path id="DejaVuSans-6e" d="M 3513 2113 
L 3513 0 
L 2938 0 
L 2938 2094 
Q 2938 2591 2744 2837 
Q 2550 3084 2163 3084 
Q 1697 3084 1428 2787 
Q 1159 2491 1159 1978 
L 1159 0 
L 581 0 
L 581 3500 
L 1159 3500 
L 1159 2956 
Q 1366 3272 1645 3428 
Q 1925 3584 2291 3584 
Q 2894 3584 3203 3211 
Q 3513 2838 3513 2113 
z
" transform="scale(0.015625)"/>
       <path id="DejaVuSans-73" d="M 2834 3397 
L 2834 2853 
Q 2591 2978 2328 3040 
Q 2066 3103 1784 3103 
Q 1356 3103 1142 2972 
Q 928 2841 928 2578 
Q 928 2378 1081 2264 
Q 1234 2150 1697 2047 
L 1894 2003 
Q 2506 1872 2764 1633 
Q 3022 1394 3022 966 
Q 3022 478 2636 193 
Q 2250 -91 1575 -91 
Q 1294 -91 989 -36 
Q 684 19 347 128 
L 347 722 
Q 666 556 975 473 
Q 1284 391 1588 391 
Q 1994 391 2212 530 
Q 2431 669 2431 922 
Q 2431 1156 2273 1281 
Q 2116 1406 1581 1522 
L 1381 1569 
Q 847 1681 609 1914 
Q 372 2147 372 2553 
Q 372 3047 722 3315 
Q 1072 3584 1716 3584 
Q 2034 3584 2315 3537 
Q 2597 3491 2834 3397 
z
" transform="scale(0.015625)"/>
       <path id="DejaVuSans-69" d="M 603 3500 
L 1178 3500 
L 1178 0 
L 603 0 
L 603 3500 
z
M 603 4863 
L 1178 4863 
L 1178 4134 
L 603 4134 
L 603 4863 
z
" transform="scale(0.015625)"/>
       <path id="DejaVuSans-74" d="M 1172 4494 
L 1172 3500 
L 2356 3500 
L 2356 3053 
L 1172 3053 
L 1172 1153 
Q 1172 725 1289 603 
Q 1406 481 1766 481 
L 2356 481 
L 2356 0 
L 1766 0 
Q 1100 0 847 248 
Q 594 497 594 1153 
L 594 3053 
L 172 3053 
L 172 3500 
L 594 3500 
L 594 4494 
L 1172 4494 
z
" transform="scale(0.015625)"/>
       <path id="DejaVuSans-79" d="M 2059 -325 
Q 1816 -950 1584 -1140 
Q 1353 -1331 966 -1331 
L 506 -1331 
L 506 -850 
L 844 -850 
Q 1081 -850 1212 -737 
Q 1344 -625 1503 -206 
L 1606 56 
L 191 3500 
L 800 3500 
L 1894 763 
L 2988 3500 
L 3597 3500 
L 2059 -325 
z
" transform="scale(0.015625)"/>
      </defs>
      <use xlink:href="#DejaVuSans-44"/>
      <use xlink:href="#DejaVuSans-65" transform="translate(77.001953 0)"/>
      <use xlink:href="#DejaVuSans-6e" transform="translate(138.525391 0)"/>
      <use xlink:href="#DejaVuSans-73" transform="translate(201.904297 0)"/>
      <use xlink:href="#DejaVuSans-69" transform="translate(254.003906 0)"/>
      <use xlink:href="#DejaVuSans-74" transform="translate(281.787109 0)"/>
      <use xlink:href="#DejaVuSans-79" transform="translate(320.996094 0)"/>
     </g>
    </g>
   </g>
   <g id="line2d_27">
    <path d="M 83.800909 340.039135 
L 89.787021 334.524922 
L 95.773134 328.618115 
L 101.759246 322.320448 
L 107.745359 315.638145 
L 113.731471 308.58229 
L 119.717583 301.169141 
L 125.703696 293.420385 
L 131.689808 285.36331 
L 140.668977 272.773315 
L 149.648145 259.700366 
L 161.62037 241.803695 
L 179.578707 214.909287 
L 188.557876 201.921304 
L 194.543988 193.593865 
L 200.530101 185.615113 
L 206.516213 178.056142 
L 212.502325 170.986314 
L 218.488438 164.472209 
L 221.481494 161.443341 
L 224.47455 158.576585 
L 227.467606 155.879023 
L 230.460662 153.357377 
L 233.453719 151.01798 
L 236.446775 148.866748 
L 239.439831 146.909159 
L 242.432887 145.150225 
L 245.425943 143.594473 
L 248.419 142.245927 
L 251.412056 141.108088 
L 254.405112 140.183919 
L 257.398168 139.475835 
L 260.391224 138.98569 
L 263.38428 138.714769 
L 266.377337 138.663783 
L 269.370393 138.832866 
L 272.363449 139.221573 
L 275.356505 139.828886 
L 278.349561 140.653213 
L 281.342618 141.692398 
L 284.335674 142.94373 
L 287.32873 144.403956 
L 290.321786 146.069292 
L 293.314842 147.935442 
L 296.307899 149.997616 
L 299.300955 152.250549 
L 302.294011 154.688525 
L 305.287067 157.305401 
L 308.280123 160.094632 
L 311.27318 163.049299 
L 317.259292 169.425563 
L 323.245404 176.372465 
L 329.231517 183.824218 
L 335.217629 191.712012 
L 341.203741 199.965061 
L 350.18291 212.872607 
L 362.155135 230.695165 
L 383.106528 262.067756 
L 392.085697 275.065488 
L 401.064865 287.554 
L 407.050978 295.531335 
L 413.03709 303.192473 
L 419.023202 310.511638 
L 425.009315 317.468623 
L 430.995427 324.048586 
L 436.98154 330.24178 
L 442.967652 336.043224 
L 448.953764 341.452322 
L 454.939877 346.472443 
L 460.925989 351.110482 
L 466.912101 355.376406 
L 472.898214 359.282793 
L 478.884326 362.844381 
L 484.870439 366.077631 
L 490.856551 369.000311 
L 496.842663 371.631109 
L 502.828776 373.989275 
L 508.814888 376.094295 
L 514.801 377.965615 
L 520.787113 379.622385 
L 526.773225 381.083252 
L 532.759338 382.366188 
L 541.738506 383.994253 
L 550.717675 385.314302 
L 559.696843 386.375125 
L 568.676012 387.220127 
L 580.648237 388.076041 
L 592.620461 388.691192 
L 607.585742 389.213172 
L 625.544079 389.593498 
L 649.488529 389.853045 
L 679.419091 389.981803 
L 679.419091 389.981803 
" clip-path="url(#pd808ce142f)" style="fill: none; stroke: #0000ff; stroke-width: 2; stroke-linecap: square"/>
   </g>
   <g id="line2d_28">
    <path d="M 265.574123 390.04 
L 265.574123 26.88 
" clip-path="url(#pd808ce142f)" style="fill: none; stroke-dasharray: 5.55,2.4; stroke-dashoffset: 0; stroke: #0000ff; stroke-width: 1.5"/>
   </g>
   <g id="line2d_29">
    <path d="M 83.800909 346.859386 
L 89.787021 341.588738 
L 95.773134 335.881034 
L 101.759246 329.730652 
L 107.745359 323.136645 
L 113.731471 316.103283 
L 119.717583 308.64056 
L 125.703696 300.764628 
L 131.689808 292.498166 
L 137.675921 283.87065 
L 143.662033 274.91851 
L 152.641201 260.978524 
L 161.62037 246.582884 
L 188.557876 202.881333 
L 194.543988 193.553078 
L 200.530101 184.542591 
L 206.516213 175.93439 
L 212.502325 167.81202 
L 218.488438 160.256718 
L 224.47455 153.346074 
L 227.467606 150.155422 
L 230.460662 147.152708 
L 233.453719 144.346025 
L 236.446775 141.743001 
L 239.439831 139.350767 
L 242.432887 137.175919 
L 245.425943 135.224494 
L 248.419 133.501937 
L 251.412056 132.01308 
L 254.405112 130.762115 
L 257.398168 129.752579 
L 260.391224 128.987333 
L 263.38428 128.468551 
L 266.377337 128.19771 
L 269.370393 128.175581 
L 272.363449 128.402228 
L 275.356505 128.877004 
L 278.349561 129.598558 
L 281.342618 130.56484 
L 284.335674 131.773109 
L 287.32873 133.219948 
L 290.321786 134.901279 
L 293.314842 136.812383 
L 296.307899 138.947923 
L 299.300955 141.301964 
L 302.294011 143.868007 
L 305.287067 146.639015 
L 308.280123 149.607446 
L 311.27318 152.765287 
L 314.266236 156.10409 
L 320.252348 163.288843 
L 326.23846 171.086886 
L 332.224573 179.418967 
L 338.210685 188.202739 
L 344.196798 197.354095 
L 353.175966 211.585617 
L 368.141247 235.96424 
L 380.113472 255.370118 
L 389.09264 269.511788 
L 395.078753 278.635231 
L 401.064865 287.458783 
L 407.050978 295.941889 
L 413.03709 304.050987 
L 419.023202 311.759424 
L 425.009315 319.04724 
L 430.995427 325.900864 
L 436.98154 332.312713 
L 442.967652 338.280725 
L 448.953764 343.807837 
L 454.939877 348.901425 
L 460.925989 353.572729 
L 466.912101 357.836262 
L 472.898214 361.709235 
L 478.884326 365.210995 
L 484.870439 368.362494 
L 490.856551 371.185791 
L 496.842663 373.703602 
L 502.828776 375.93889 
L 508.814888 377.91451 
L 514.801 379.652901 
L 520.787113 381.175826 
L 526.773225 382.504167 
L 532.759338 383.657759 
L 541.738506 385.100983 
L 550.717675 386.250402 
L 559.696843 387.157091 
L 568.676012 387.865527 
L 580.648237 388.566762 
L 592.620461 389.056923 
L 607.585742 389.459644 
L 628.537136 389.77337 
L 658.467698 389.95904 
L 679.419091 390.006782 
L 679.419091 390.006782 
" clip-path="url(#pd808ce142f)" style="fill: none; stroke: #ff0000; stroke-width: 2; stroke-linecap: square"/>
   </g>
   <g id="line2d_30">
    <path d="M 268.140005 390.04 
L 268.140005 26.88 
" clip-path="url(#pd808ce142f)" style="fill: none; stroke-dasharray: 5.55,2.4; stroke-dashoffset: 0; stroke: #ff0000; stroke-width: 1.5"/>
   </g>
   <g id="patch_63">
    <path d="M 54.02 390.04 
L 54.02 26.88 
" style="fill: none; stroke: #000000; stroke-width: 0.8; stroke-linejoin: miter; stroke-linecap: square"/>
   </g>
   <g id="patch_64">
    <path d="M 709.2 390.04 
L 709.2 26.88 
" style="fill: none; stroke: #000000; stroke-width: 0.8; stroke-linejoin: miter; stroke-linecap: square"/>
   </g>
   <g id="patch_65">
    <path d="M 54.02 390.04 
L 709.2 390.04 
" style="fill: none; stroke: #000000; stroke-width: 0.8; stroke-linejoin: miter; stroke-linecap: square"/>
   </g>
   <g id="patch_66">
    <path d="M 54.02 26.88 
L 709.2 26.88 
" style="fill: none; stroke: #000000; stroke-width: 0.8; stroke-linejoin: miter; stroke-linecap: square"/>
   </g>
   <g id="text_16">
    <!-- Figure 1: Distribution of FKGL Scores Before and After Nov 22, 2022(95% CI Filtered, Gaussian Fit) -->
    <g transform="translate(88.255 20.88) scale(0.12 -0.12)">
     <defs>
      <path id="DejaVuSans-67" d="M 2906 1791 
Q 2906 2416 2648 2759 
Q 2391 3103 1925 3103 
Q 1463 3103 1205 2759 
Q 947 2416 947 1791 
Q 947 1169 1205 825 
Q 1463 481 1925 481 
Q 2391 481 2648 825 
Q 2906 1169 2906 1791 
z
M 3481 434 
Q 3481 -459 3084 -895 
Q 2688 -1331 1869 -1331 
Q 1566 -1331 1297 -1286 
Q 1028 -1241 775 -1147 
L 775 -588 
Q 1028 -725 1275 -790 
Q 1522 -856 1778 -856 
Q 2344 -856 2625 -561 
Q 2906 -266 2906 331 
L 2906 616 
Q 2728 306 2450 153 
Q 2172 0 1784 0 
Q 1141 0 747 490 
Q 353 981 353 1791 
Q 353 2603 747 3093 
Q 1141 3584 1784 3584 
Q 2172 3584 2450 3431 
Q 2728 3278 2906 2969 
L 2906 3500 
L 3481 3500 
L 3481 434 
z
" transform="scale(0.015625)"/>
      <path id="DejaVuSans-75" d="M 544 1381 
L 544 3500 
L 1119 3500 
L 1119 1403 
Q 1119 906 1312 657 
Q 1506 409 1894 409 
Q 2359 409 2629 706 
Q 2900 1003 2900 1516 
L 2900 3500 
L 3475 3500 
L 3475 0 
L 2900 0 
L 2900 538 
Q 2691 219 2414 64 
Q 2138 -91 1772 -91 
Q 1169 -91 856 284 
Q 544 659 544 1381 
z
M 1991 3584 
L 1991 3584 
z
" transform="scale(0.015625)"/>
      <path id="DejaVuSans-3a" d="M 750 794 
L 1409 794 
L 1409 0 
L 750 0 
L 750 794 
z
M 750 3309 
L 1409 3309 
L 1409 2516 
L 750 2516 
L 750 3309 
z
" transform="scale(0.015625)"/>
      <path id="DejaVuSans-62" d="M 3116 1747 
Q 3116 2381 2855 2742 
Q 2594 3103 2138 3103 
Q 1681 3103 1420 2742 
Q 1159 2381 1159 1747 
Q 1159 1113 1420 752 
Q 1681 391 2138 391 
Q 2594 391 2855 752 
Q 3116 1113 3116 1747 
z
M 1159 2969 
Q 1341 3281 1617 3432 
Q 1894 3584 2278 3584 
Q 2916 3584 3314 3078 
Q 3713 2572 3713 1747 
Q 3713 922 3314 415 
Q 2916 -91 2278 -91 
Q 1894 -91 1617 61 
Q 1341 213 1159 525 
L 1159 0 
L 581 0 
L 581 4863 
L 1159 4863 
L 1159 2969 
z
" transform="scale(0.015625)"/>
      <path id="DejaVuSans-66" d="M 2375 4863 
L 2375 4384 
L 1825 4384 
Q 1516 4384 1395 4259 
Q 1275 4134 1275 3809 
L 1275 3500 
L 2222 3500 
L 2222 3053 
L 1275 3053 
L 1275 0 
L 697 0 
L 697 3053 
L 147 3053 
L 147 3500 
L 697 3500 
L 697 3744 
Q 697 4328 969 4595 
Q 1241 4863 1831 4863 
L 2375 4863 
z
" transform="scale(0.015625)"/>
      <path id="DejaVuSans-42" d="M 1259 2228 
L 1259 519 
L 2272 519 
Q 2781 519 3026 730 
Q 3272 941 3272 1375 
Q 3272 1813 3026 2020 
Q 2781 2228 2272 2228 
L 1259 2228 
z
M 1259 4147 
L 1259 2741 
L 2194 2741 
Q 2656 2741 2882 2914 
Q 3109 3088 3109 3444 
Q 3109 3797 2882 3972 
Q 2656 4147 2194 4147 
L 1259 4147 
z
M 628 4666 
L 2241 4666 
Q 2963 4666 3353 4366 
Q 3744 4066 3744 3513 
Q 3744 3084 3544 2831 
Q 3344 2578 2956 2516 
Q 3422 2416 3680 2098 
Q 3938 1781 3938 1306 
Q 3938 681 3513 340 
Q 3088 0 2303 0 
L 628 0 
L 628 4666 
z
" transform="scale(0.015625)"/>
      <path id="DejaVuSans-61" d="M 2194 1759 
Q 1497 1759 1228 1600 
Q 959 1441 959 1056 
Q 959 750 1161 570 
Q 1363 391 1709 391 
Q 2188 391 2477 730 
Q 2766 1069 2766 1631 
L 2766 1759 
L 2194 1759 
z
M 3341 1997 
L 3341 0 
L 2766 0 
L 2766 531 
Q 2569 213 2275 61 
Q 1981 -91 1556 -91 
Q 1019 -91 701 211 
Q 384 513 384 1019 
Q 384 1609 779 1909 
Q 1175 2209 1959 2209 
L 2766 2209 
L 2766 2266 
Q 2766 2663 2505 2880 
Q 2244 3097 1772 3097 
Q 1472 3097 1187 3025 
Q 903 2953 641 2809 
L 641 3341 
Q 956 3463 1253 3523 
Q 1550 3584 1831 3584 
Q 2591 3584 2966 3190 
Q 3341 2797 3341 1997 
z
" transform="scale(0.015625)"/>
      <path id="DejaVuSans-64" d="M 2906 2969 
L 2906 4863 
L 3481 4863 
L 3481 0 
L 2906 0 
L 2906 525 
Q 2725 213 2448 61 
Q 2172 -91 1784 -91 
Q 1150 -91 751 415 
Q 353 922 353 1747 
Q 353 2572 751 3078 
Q 1150 3584 1784 3584 
Q 2172 3584 2448 3432 
Q 2725 3281 2906 2969 
z
M 947 1747 
Q 947 1113 1208 752 
Q 1469 391 1925 391 
Q 2381 391 2643 752 
Q 2906 1113 2906 1747 
Q 2906 2381 2643 2742 
Q 2381 3103 1925 3103 
Q 1469 3103 1208 2742 
Q 947 2381 947 1747 
z
" transform="scale(0.015625)"/>
      <path id="DejaVuSans-41" d="M 2188 4044 
L 1331 1722 
L 3047 1722 
L 2188 4044 
z
M 1831 4666 
L 2547 4666 
L 4325 0 
L 3669 0 
L 3244 1197 
L 1141 1197 
L 716 0 
L 50 0 
L 1831 4666 
z
" transform="scale(0.015625)"/>
      <path id="DejaVuSans-4e" d="M 628 4666 
L 1478 4666 
L 3547 763 
L 3547 4666 
L 4159 4666 
L 4159 0 
L 3309 0 
L 1241 3903 
L 1241 0 
L 628 0 
L 628 4666 
z
" transform="scale(0.015625)"/>
      <path id="DejaVuSans-76" d="M 191 3500 
L 800 3500 
L 1894 563 
L 2988 3500 
L 3597 3500 
L 2284 0 
L 1503 0 
L 191 3500 
z
" transform="scale(0.015625)"/>
      <path id="DejaVuSans-2c" d="M 750 794 
L 1409 794 
L 1409 256 
L 897 -744 
L 494 -744 
L 750 256 
L 750 794 
z
" transform="scale(0.015625)"/>
      <path id="DejaVuSans-28" d="M 1984 4856 
Q 1566 4138 1362 3434 
Q 1159 2731 1159 2009 
Q 1159 1288 1364 580 
Q 1569 -128 1984 -844 
L 1484 -844 
Q 1016 -109 783 600 
Q 550 1309 550 2009 
Q 550 2706 781 3412 
Q 1013 4119 1484 4856 
L 1984 4856 
z
" transform="scale(0.015625)"/>
      <path id="DejaVuSans-39" d="M 703 97 
L 703 672 
Q 941 559 1184 500 
Q 1428 441 1663 441 
Q 2288 441 2617 861 
Q 2947 1281 2994 2138 
Q 2813 1869 2534 1725 
Q 2256 1581 1919 1581 
Q 1219 1581 811 2004 
Q 403 2428 403 3163 
Q 403 3881 828 4315 
Q 1253 4750 1959 4750 
Q 2769 4750 3195 4129 
Q 3622 3509 3622 2328 
Q 3622 1225 3098 567 
Q 2575 -91 1691 -91 
Q 1453 -91 1209 -44 
Q 966 3 703 97 
z
M 1959 2075 
Q 2384 2075 2632 2365 
Q 2881 2656 2881 3163 
Q 2881 3666 2632 3958 
Q 2384 4250 1959 4250 
Q 1534 4250 1286 3958 
Q 1038 3666 1038 3163 
Q 1038 2656 1286 2365 
Q 1534 2075 1959 2075 
z
" transform="scale(0.015625)"/>
      <path id="DejaVuSans-25" d="M 4653 2053 
Q 4381 2053 4226 1822 
Q 4072 1591 4072 1178 
Q 4072 772 4226 539 
Q 4381 306 4653 306 
Q 4919 306 5073 539 
Q 5228 772 5228 1178 
Q 5228 1588 5073 1820 
Q 4919 2053 4653 2053 
z
M 4653 2450 
Q 5147 2450 5437 2106 
Q 5728 1763 5728 1178 
Q 5728 594 5436 251 
Q 5144 -91 4653 -91 
Q 4153 -91 3862 251 
Q 3572 594 3572 1178 
Q 3572 1766 3864 2108 
Q 4156 2450 4653 2450 
z
M 1428 4353 
Q 1159 4353 1004 4120 
Q 850 3888 850 3481 
Q 850 3069 1003 2837 
Q 1156 2606 1428 2606 
Q 1700 2606 1854 2837 
Q 2009 3069 2009 3481 
Q 2009 3884 1853 4118 
Q 1697 4353 1428 4353 
z
M 4250 4750 
L 4750 4750 
L 1831 -91 
L 1331 -91 
L 4250 4750 
z
M 1428 4750 
Q 1922 4750 2215 4408 
Q 2509 4066 2509 3481 
Q 2509 2891 2217 2550 
Q 1925 2209 1428 2209 
Q 931 2209 642 2551 
Q 353 2894 353 3481 
Q 353 4063 643 4406 
Q 934 4750 1428 4750 
z
" transform="scale(0.015625)"/>
      <path id="DejaVuSans-43" d="M 4122 4306 
L 4122 3641 
Q 3803 3938 3442 4084 
Q 3081 4231 2675 4231 
Q 1875 4231 1450 3742 
Q 1025 3253 1025 2328 
Q 1025 1406 1450 917 
Q 1875 428 2675 428 
Q 3081 428 3442 575 
Q 3803 722 4122 1019 
L 4122 359 
Q 3791 134 3420 21 
Q 3050 -91 2638 -91 
Q 1578 -91 968 557 
Q 359 1206 359 2328 
Q 359 3453 968 4101 
Q 1578 4750 2638 4750 
Q 3056 4750 3426 4639 
Q 3797 4528 4122 4306 
z
" transform="scale(0.015625)"/>
      <path id="DejaVuSans-49" d="M 628 4666 
L 1259 4666 
L 1259 0 
L 628 0 
L 628 4666 
z
" transform="scale(0.015625)"/>
      <path id="DejaVuSans-6c" d="M 603 4863 
L 1178 4863 
L 1178 0 
L 603 0 
L 603 4863 
z
" transform="scale(0.015625)"/>
      <path id="DejaVuSans-29" d="M 513 4856 
L 1013 4856 
Q 1481 4119 1714 3412 
Q 1947 2706 1947 2009 
Q 1947 1309 1714 600 
Q 1481 -109 1013 -844 
L 513 -844 
Q 928 -128 1133 580 
Q 1338 1288 1338 2009 
Q 1338 2731 1133 3434 
Q 928 4138 513 4856 
z
" transform="scale(0.015625)"/>
     </defs>
     <use xlink:href="#DejaVuSans-46"/>
     <use xlink:href="#DejaVuSans-69" transform="translate(50.269531 0)"/>
     <use xlink:href="#DejaVuSans-67" transform="translate(78.052734 0)"/>
     <use xlink:href="#DejaVuSans-75" transform="translate(141.529297 0)"/>
     <use xlink:href="#DejaVuSans-72" transform="translate(204.908203 0)"/>
     <use xlink:href="#DejaVuSans-65" transform="translate(243.771484 0)"/>
     <use xlink:href="#DejaVuSans-20" transform="translate(305.294922 0)"/>
     <use xlink:href="#DejaVuSans-31" transform="translate(337.082031 0)"/>
     <use xlink:href="#DejaVuSans-3a" transform="translate(400.705078 0)"/>
     <use xlink:href="#DejaVuSans-20" transform="translate(434.396484 0)"/>
     <use xlink:href="#DejaVuSans-44" transform="translate(466.183594 0)"/>
     <use xlink:href="#DejaVuSans-69" transform="translate(543.185547 0)"/>
     <use xlink:href="#DejaVuSans-73" transform="translate(570.96875 0)"/>
     <use xlink:href="#DejaVuSans-74" transform="translate(623.068359 0)"/>
     <use xlink:href="#DejaVuSans-72" transform="translate(662.277344 0)"/>
     <use xlink:href="#DejaVuSans-69" transform="translate(703.390625 0)"/>
     <use xlink:href="#DejaVuSans-62" transform="translate(731.173828 0)"/>
     <use xlink:href="#DejaVuSans-75" transform="translate(794.650391 0)"/>
     <use xlink:href="#DejaVuSans-74" transform="translate(858.029297 0)"/>
     <use xlink:href="#DejaVuSans-69" transform="translate(897.238281 0)"/>
     <use xlink:href="#DejaVuSans-6f" transform="translate(925.021484 0)"/>
     <use xlink:href="#DejaVuSans-6e" transform="translate(986.203125 0)"/>
     <use xlink:href="#DejaVuSans-20" transform="translate(1049.582031 0)"/>
     <use xlink:href="#DejaVuSans-6f" transform="translate(1081.369141 0)"/>
     <use xlink:href="#DejaVuSans-66" transform="translate(1142.550781 0)"/>
     <use xlink:href="#DejaVuSans-20" transform="translate(1177.755859 0)"/>
     <use xlink:href="#DejaVuSans-46" transform="translate(1209.542969 0)"/>
     <use xlink:href="#DejaVuSans-4b" transform="translate(1267.0625 0)"/>
     <use xlink:href="#DejaVuSans-47" transform="translate(1332.638672 0)"/>
     <use xlink:href="#DejaVuSans-4c" transform="translate(1410.128906 0)"/>
     <use xlink:href="#DejaVuSans-20" transform="translate(1465.841797 0)"/>
     <use xlink:href="#DejaVuSans-53" transform="translate(1497.628906 0)"/>
     <use xlink:href="#DejaVuSans-63" transform="translate(1561.105469 0)"/>
     <use xlink:href="#DejaVuSans-6f" transform="translate(1616.085938 0)"/>
     <use xlink:href="#DejaVuSans-72" transform="translate(1677.267578 0)"/>
     <use xlink:href="#DejaVuSans-65" transform="translate(1716.130859 0)"/>
     <use xlink:href="#DejaVuSans-73" transform="translate(1777.654297 0)"/>
     <use xlink:href="#DejaVuSans-20" transform="translate(1829.753906 0)"/>
     <use xlink:href="#DejaVuSans-42" transform="translate(1861.541016 0)"/>
     <use xlink:href="#DejaVuSans-65" transform="translate(1930.144531 0)"/>
     <use xlink:href="#DejaVuSans-66" transform="translate(1991.667969 0)"/>
     <use xlink:href="#DejaVuSans-6f" transform="translate(2026.873047 0)"/>
     <use xlink:href="#DejaVuSans-72" transform="translate(2088.054688 0)"/>
     <use xlink:href="#DejaVuSans-65" transform="translate(2126.917969 0)"/>
     <use xlink:href="#DejaVuSans-20" transform="translate(2188.441406 0)"/>
     <use xlink:href="#DejaVuSans-61" transform="translate(2220.228516 0)"/>
     <use xlink:href="#DejaVuSans-6e" transform="translate(2281.507812 0)"/>
     <use xlink:href="#DejaVuSans-64" transform="translate(2344.886719 0)"/>
     <use xlink:href="#DejaVuSans-20" transform="translate(2408.363281 0)"/>
     <use xlink:href="#DejaVuSans-41" transform="translate(2440.150391 0)"/>
     <use xlink:href="#DejaVuSans-66" transform="translate(2504.933594 0)"/>
     <use xlink:href="#DejaVuSans-74" transform="translate(2538.388672 0)"/>
     <use xlink:href="#DejaVuSans-65" transform="translate(2577.597656 0)"/>
     <use xlink:href="#DejaVuSans-72" transform="translate(2639.121094 0)"/>
     <use xlink:href="#DejaVuSans-20" transform="translate(2680.234375 0)"/>
     <use xlink:href="#DejaVuSans-4e" transform="translate(2712.021484 0)"/>
     <use xlink:href="#DejaVuSans-6f" transform="translate(2786.826172 0)"/>
     <use xlink:href="#DejaVuSans-76" transform="translate(2848.007812 0)"/>
     <use xlink:href="#DejaVuSans-20" transform="translate(2907.1875 0)"/>
     <use xlink:href="#DejaVuSans-32" transform="translate(2938.974609 0)"/>
     <use xlink:href="#DejaVuSans-32" transform="translate(3002.597656 0)"/>
     <use xlink:href="#DejaVuSans-2c" transform="translate(3066.220703 0)"/>
     <use xlink:href="#DejaVuSans-20" transform="translate(3098.007812 0)"/>
     <use xlink:href="#DejaVuSans-32" transform="translate(3129.794922 0)"/>
     <use xlink:href="#DejaVuSans-30" transform="translate(3193.417969 0)"/>
     <use xlink:href="#DejaVuSans-32" transform="translate(3257.041016 0)"/>
     <use xlink:href="#DejaVuSans-32" transform="translate(3320.664062 0)"/>
     <use xlink:href="#DejaVuSans-28" transform="translate(3384.287109 0)"/>
     <use xlink:href="#DejaVuSans-39" transform="translate(3423.300781 0)"/>
     <use xlink:href="#DejaVuSans-35" transform="translate(3486.923828 0)"/>
     <use xlink:href="#DejaVuSans-25" transform="translate(3550.546875 0)"/>
     <use xlink:href="#DejaVuSans-20" transform="translate(3645.566406 0)"/>
     <use xlink:href="#DejaVuSans-43" transform="translate(3677.353516 0)"/>
     <use xlink:href="#DejaVuSans-49" transform="translate(3747.177734 0)"/>
     <use xlink:href="#DejaVuSans-20" transform="translate(3776.669922 0)"/>
     <use xlink:href="#DejaVuSans-46" transform="translate(3808.457031 0)"/>
     <use xlink:href="#DejaVuSans-69" transform="translate(3858.726562 0)"/>
     <use xlink:href="#DejaVuSans-6c" transform="translate(3886.509766 0)"/>
     <use xlink:href="#DejaVuSans-74" transform="translate(3914.292969 0)"/>
     <use xlink:href="#DejaVuSans-65" transform="translate(3953.501953 0)"/>
     <use xlink:href="#DejaVuSans-72" transform="translate(4015.025391 0)"/>
     <use xlink:href="#DejaVuSans-65" transform="translate(4053.888672 0)"/>
     <use xlink:href="#DejaVuSans-64" transform="translate(4115.412109 0)"/>
     <use xlink:href="#DejaVuSans-2c" transform="translate(4178.888672 0)"/>
     <use xlink:href="#DejaVuSans-20" transform="translate(4210.675781 0)"/>
     <use xlink:href="#DejaVuSans-47" transform="translate(4242.462891 0)"/>
     <use xlink:href="#DejaVuSans-61" transform="translate(4319.953125 0)"/>
     <use xlink:href="#DejaVuSans-75" transform="translate(4381.232422 0)"/>
     <use xlink:href="#DejaVuSans-73" transform="translate(4444.611328 0)"/>
     <use xlink:href="#DejaVuSans-73" transform="translate(4496.710938 0)"/>
     <use xlink:href="#DejaVuSans-69" transform="translate(4548.810547 0)"/>
     <use xlink:href="#DejaVuSans-61" transform="translate(4576.59375 0)"/>
     <use xlink:href="#DejaVuSans-6e" transform="translate(4637.873047 0)"/>
     <use xlink:href="#DejaVuSans-20" transform="translate(4701.251953 0)"/>
     <use xlink:href="#DejaVuSans-46" transform="translate(4733.039062 0)"/>
     <use xlink:href="#DejaVuSans-69" transform="translate(4783.308594 0)"/>
     <use xlink:href="#DejaVuSans-74" transform="translate(4811.091797 0)"/>
     <use xlink:href="#DejaVuSans-29" transform="translate(4850.300781 0)"/>
    </g>
   </g>
   <g id="legend_1">
    <g id="patch_67">
     <path d="M 567.101562 93.5925 
L 702.2 93.5925 
Q 704.2 93.5925 704.2 91.5925 
L 704.2 33.88 
Q 704.2 31.88 702.2 31.88 
L 567.101562 31.88 
Q 565.101562 31.88 565.101562 33.88 
L 565.101562 91.5925 
Q 565.101562 93.5925 567.101562 93.5925 
z
" style="fill: #ffffff; opacity: 0.8; stroke: #cccccc; stroke-linejoin: miter"/>
    </g>
    <g id="line2d_31">
     <path d="M 569.101562 39.978437 
L 579.101562 39.978437 
L 589.101562 39.978437 
" style="fill: none; stroke-dasharray: 5.55,2.4; stroke-dashoffset: 0; stroke: #0000ff; stroke-width: 1.5"/>
    </g>
    <g id="text_17">
     <!-- Mean Before -->
     <g transform="translate(597.101562 43.478437) scale(0.1 -0.1)">
      <defs>
       <path id="DejaVuSans-4d" d="M 628 4666 
L 1569 4666 
L 2759 1491 
L 3956 4666 
L 4897 4666 
L 4897 0 
L 4281 0 
L 4281 4097 
L 3078 897 
L 2444 897 
L 1241 4097 
L 1241 0 
L 628 0 
L 628 4666 
z
" transform="scale(0.015625)"/>
      </defs>
      <use xlink:href="#DejaVuSans-4d"/>
      <use xlink:href="#DejaVuSans-65" transform="translate(86.279297 0)"/>
      <use xlink:href="#DejaVuSans-61" transform="translate(147.802734 0)"/>
      <use xlink:href="#DejaVuSans-6e" transform="translate(209.082031 0)"/>
      <use xlink:href="#DejaVuSans-20" transform="translate(272.460938 0)"/>
      <use xlink:href="#DejaVuSans-42" transform="translate(304.248047 0)"/>
      <use xlink:href="#DejaVuSans-65" transform="translate(372.851562 0)"/>
      <use xlink:href="#DejaVuSans-66" transform="translate(434.375 0)"/>
      <use xlink:href="#DejaVuSans-6f" transform="translate(469.580078 0)"/>
      <use xlink:href="#DejaVuSans-72" transform="translate(530.761719 0)"/>
      <use xlink:href="#DejaVuSans-65" transform="translate(569.625 0)"/>
     </g>
    </g>
    <g id="line2d_32">
     <path d="M 569.101562 54.656563 
L 579.101562 54.656563 
L 589.101562 54.656563 
" style="fill: none; stroke-dasharray: 5.55,2.4; stroke-dashoffset: 0; stroke: #ff0000; stroke-width: 1.5"/>
    </g>
    <g id="text_18">
     <!-- Mean After -->
     <g transform="translate(597.101562 58.156563) scale(0.1 -0.1)">
      <use xlink:href="#DejaVuSans-4d"/>
      <use xlink:href="#DejaVuSans-65" transform="translate(86.279297 0)"/>
      <use xlink:href="#DejaVuSans-61" transform="translate(147.802734 0)"/>
      <use xlink:href="#DejaVuSans-6e" transform="translate(209.082031 0)"/>
      <use xlink:href="#DejaVuSans-20" transform="translate(272.460938 0)"/>
      <use xlink:href="#DejaVuSans-41" transform="translate(304.248047 0)"/>
      <use xlink:href="#DejaVuSans-66" transform="translate(369.03125 0)"/>
      <use xlink:href="#DejaVuSans-74" transform="translate(402.486328 0)"/>
      <use xlink:href="#DejaVuSans-65" transform="translate(441.695312 0)"/>
      <use xlink:href="#DejaVuSans-72" transform="translate(503.21875 0)"/>
     </g>
    </g>
    <g id="patch_68">
     <path d="M 569.101562 72.834687 
L 589.101562 72.834687 
L 589.101562 65.834687 
L 569.101562 65.834687 
z
" style="fill: #87ceeb; fill-opacity: 0.6; stroke: #000000; stroke-linejoin: miter"/>
    </g>
    <g id="text_19">
     <!-- Before Nov 22, 2022 -->
     <g transform="translate(597.101562 72.834687) scale(0.1 -0.1)">
      <use xlink:href="#DejaVuSans-42"/>
      <use xlink:href="#DejaVuSans-65" transform="translate(68.603516 0)"/>
      <use xlink:href="#DejaVuSans-66" transform="translate(130.126953 0)"/>
      <use xlink:href="#DejaVuSans-6f" transform="translate(165.332031 0)"/>
      <use xlink:href="#DejaVuSans-72" transform="translate(226.513672 0)"/>
      <use xlink:href="#DejaVuSans-65" transform="translate(265.376953 0)"/>
      <use xlink:href="#DejaVuSans-20" transform="translate(326.900391 0)"/>
      <use xlink:href="#DejaVuSans-4e" transform="translate(358.6875 0)"/>
      <use xlink:href="#DejaVuSans-6f" transform="translate(433.492188 0)"/>
      <use xlink:href="#DejaVuSans-76" transform="translate(494.673828 0)"/>
      <use xlink:href="#DejaVuSans-20" transform="translate(553.853516 0)"/>
      <use xlink:href="#DejaVuSans-32" transform="translate(585.640625 0)"/>
      <use xlink:href="#DejaVuSans-32" transform="translate(649.263672 0)"/>
      <use xlink:href="#DejaVuSans-2c" transform="translate(712.886719 0)"/>
      <use xlink:href="#DejaVuSans-20" transform="translate(744.673828 0)"/>
      <use xlink:href="#DejaVuSans-32" transform="translate(776.460938 0)"/>
      <use xlink:href="#DejaVuSans-30" transform="translate(840.083984 0)"/>
      <use xlink:href="#DejaVuSans-32" transform="translate(903.707031 0)"/>
      <use xlink:href="#DejaVuSans-32" transform="translate(967.330078 0)"/>
     </g>
    </g>
    <g id="patch_69">
     <path d="M 569.101562 87.512812 
L 589.101562 87.512812 
L 589.101562 80.512812 
L 569.101562 80.512812 
z
" style="fill: #fa8072; fill-opacity: 0.6; stroke: #000000; stroke-linejoin: miter"/>
    </g>
    <g id="text_20">
     <!-- After Nov 22, 2022 -->
     <g transform="translate(597.101562 87.512812) scale(0.1 -0.1)">
      <use xlink:href="#DejaVuSans-41"/>
      <use xlink:href="#DejaVuSans-66" transform="translate(64.783203 0)"/>
      <use xlink:href="#DejaVuSans-74" transform="translate(98.238281 0)"/>
      <use xlink:href="#DejaVuSans-65" transform="translate(137.447266 0)"/>
      <use xlink:href="#DejaVuSans-72" transform="translate(198.970703 0)"/>
      <use xlink:href="#DejaVuSans-20" transform="translate(240.083984 0)"/>
      <use xlink:href="#DejaVuSans-4e" transform="translate(271.871094 0)"/>
      <use xlink:href="#DejaVuSans-6f" transform="translate(346.675781 0)"/>
      <use xlink:href="#DejaVuSans-76" transform="translate(407.857422 0)"/>
      <use xlink:href="#DejaVuSans-20" transform="translate(467.037109 0)"/>
      <use xlink:href="#DejaVuSans-32" transform="translate(498.824219 0)"/>
      <use xlink:href="#DejaVuSans-32" transform="translate(562.447266 0)"/>
      <use xlink:href="#DejaVuSans-2c" transform="translate(626.070312 0)"/>
      <use xlink:href="#DejaVuSans-20" transform="translate(657.857422 0)"/>
      <use xlink:href="#DejaVuSans-32" transform="translate(689.644531 0)"/>
      <use xlink:href="#DejaVuSans-30" transform="translate(753.267578 0)"/>
      <use xlink:href="#DejaVuSans-32" transform="translate(816.890625 0)"/>
      <use xlink:href="#DejaVuSans-32" transform="translate(880.513672 0)"/>
     </g>
    </g>
   </g>
  </g>
 </g>
 <defs>
  <clipPath id="pd808ce142f">
   <rect x="54.02" y="26.88" width="655.18" height="363.16"/>
  </clipPath>
 </defs>
</svg>
